/* XPM */
static char *_403af28f3b248f3b164de597ba58e0032mtftq7FbcUrwo4[] = {
/* columns rows colors chars-per-pixel */
"71 72 252 2 ",
"   c #187AAD",
".  c #227FA8",
"X  c #1182B6",
"o  c #1B80AC",
"O  c #5899B5",
"+  c #629BAF",
"@  c #5BA7BF",
"#  c #62A6BD",
"$  c #0387CE",
"%  c #018CCD",
"&  c #0C8CCE",
"*  c #0986C6",
"=  c #128DCC",
"-  c #1682CD",
";  c #0192CD",
":  c #0694CA",
">  c #1796CF",
",  c #0387D4",
"<  c #0A86D4",
"1  c #028DD5",
"2  c #0B8CD4",
"3  c #0386DA",
"4  c #0A85DA",
"5  c #028DDC",
"6  c #0A8CDB",
"7  c #128DDC",
"8  c #138BD6",
"9  c #0293D5",
"0  c #0B92D4",
"q  c #019AD5",
"w  c #0C99D6",
"e  c #0292DC",
"r  c #0A93DC",
"t  c #019ADC",
"y  c #0C9BDE",
"u  c #1394D6",
"i  c #1A96D3",
"p  c #149BD6",
"a  c #1C9BD5",
"s  c #1394DC",
"d  c #1B95DC",
"f  c #139BDC",
"g  c #1C9BDC",
"h  c #299CCE",
"j  c #238ED4",
"k  c #249CD4",
"l  c #2394DC",
"z  c #239BDB",
"x  c #2B9DDB",
"c  c #2A99D6",
"v  c #3B9DDF",
"b  c #329DDA",
"n  c #3C9CCE",
"m  c #16A3DB",
"M  c #1CA2DA",
"N  c #1DA5D6",
"B  c #1BA2CF",
"V  c #24A2DA",
"C  c #2AA3DD",
"Z  c #2AA5D6",
"A  c #34A3DB",
"S  c #3BA4DB",
"D  c #38A8D7",
"F  c #0385E5",
"G  c #028DE2",
"H  c #0A8DE2",
"J  c #038DEA",
"K  c #0A8DEA",
"L  c #0A87E1",
"P  c #118DE3",
"I  c #158AE7",
"U  c #0293E2",
"Y  c #0B93E3",
"T  c #0299E3",
"R  c #0C99E2",
"E  c #0293E9",
"W  c #0993E9",
"Q  c #0299EA",
"!  c #0D9AEC",
"~  c #1394E2",
"^  c #1B95E3",
"/  c #149BE3",
"(  c #1C9BE3",
")  c #1295EA",
"_  c #199BE9",
"`  c #0D92F4",
"'  c #2597E2",
"]  c #239CE2",
"[  c #2B9CE3",
"{  c #239BE9",
"}  c #2E9CE9",
"|  c #2997EA",
" . c #359CE4",
".. c #3C9DE3",
"X. c #369BE9",
"o. c #1AA2E5",
"O. c #0CA1E3",
"+. c #26A2E4",
"@. c #2DA3E3",
"#. c #28A2E8",
"$. c #33A4E2",
"%. c #3DA4E4",
"&. c #34AAE4",
"*. c #3DABE3",
"=. c #35A7EB",
"-. c #3FA4EB",
";. c #35AAEB",
":. c #3DA9E9",
">. c #38A8F2",
",. c #3BB2EC",
"<. c #409FDB",
"1. c #6D9FC2",
"2. c #5DA4C8",
"3. c #41A2DD",
"4. c #4CACDD",
"5. c #45A9D9",
"6. c #52ACDD",
"7. c #57ABDA",
"8. c #4BB2DB",
"9. c #5CB4DC",
"0. c #55B3D8",
"q. c #68A7C8",
"w. c #64B2CE",
"e. c #66B3D1",
"r. c #6AB3D1",
"t. c #6CB3DE",
"y. c #6BBADD",
"u. c #63B7DD",
"i. c #73BADD",
"p. c #7DBEDC",
"a. c #74B7D7",
"s. c #74ACDB",
"d. c #43A3E3",
"f. c #43ABE3",
"g. c #4CAAE4",
"h. c #44A4E9",
"j. c #4CADE9",
"k. c #48A8E7",
"l. c #54ACE3",
"z. c #59ADE1",
"x. c #51ADEA",
"c. c #5BADEC",
"v. c #53A5EA",
"b. c #49B2E7",
"n. c #52B1E4",
"m. c #5CB3E3",
"M. c #53B3ED",
"N. c #5BB4EA",
"B. c #59BAE7",
"V. c #49B3F1",
"C. c #59B3F2",
"Z. c #53ACF1",
"A. c #62AEE3",
"S. c #67AEE9",
"D. c #73ACE7",
"F. c #63B3E4",
"G. c #6AB5E4",
"H. c #64BBE4",
"J. c #6BBBE4",
"K. c #65B5EB",
"L. c #6BB5EA",
"P. c #65BAEC",
"I. c #6BBBEB",
"U. c #7AB6E3",
"Y. c #74BCE4",
"T. c #7CBCE4",
"R. c #72B6EA",
"E. c #7BB4EC",
"W. c #73BBEC",
"Q. c #7CBDEC",
"!. c #71B5E4",
"~. c #65B4F4",
"^. c #6CB6F1",
"/. c #64BAF1",
"(. c #6ABDF1",
"). c #6EB2FB",
"_. c #75BBF4",
"`. c #7BBDF1",
"'. c #78B9F5",
"]. c #6EAFF2",
"[. c #69C3DB",
"{. c #7AC2DC",
"}. c #76C1DA",
"|. c #6DC0EC",
" X c #6BC2E4",
".X c #73C1E4",
"XX c #7DC2E4",
"oX c #7CC9E3",
"OX c #75C2EC",
"+X c #7DC2EB",
"@X c #78C9EA",
"#X c #74C3F1",
"$X c #7CC3F3",
"%X c #7ECAF4",
"&X c #79C7F9",
"*X c #6DC1F0",
"=X c #9DB9BC",
"-X c #B3B6BD",
";X c #82BDDC",
":X c #89BCD9",
">X c #95B2C0",
",X c #AABAC6",
"<X c #83BDE4",
"1X c #8ABDE4",
"2X c #84BCEB",
"3X c #8BBDEC",
"4X c #87B6E6",
"5X c #92BDE5",
"6X c #93BEEB",
"7X c #99BEED",
"8X c #83BCF2",
"9X c #8BBDF3",
"0X c #88BAFB",
"qX c #93BEF3",
"wX c #97BEF9",
"eX c #83C3DD",
"rX c #8CC2DC",
"tX c #86C5D8",
"yX c #9ACADA",
"uX c #A8C3C9",
"iX c #B1CECF",
"pX c #ACCAD4",
"aX c #B6CED7",
"sX c #B9D4D9",
"dX c #ABD0D8",
"fX c #83C2E5",
"gX c #8BC3E4",
"hX c #83CAE5",
"jX c #84C3EB",
"kX c #8BC3EB",
"lX c #84C9EC",
"zX c #8BCAEC",
"xX c #8ACAE4",
"cX c #93C2E5",
"vX c #93C4EB",
"bX c #9AC4EB",
"nX c #92C9EB",
"mX c #94C9E4",
"MX c #84C3F2",
"NX c #8CC3F3",
"BX c #84C9F3",
"VX c #8CCAF2",
"CX c #84C4FC",
"ZX c #8CC5F9",
"AX c #85CAFA",
"SX c #8CC8FA",
"DX c #91C3F3",
"FX c #95C8F7",
"GX c #8AD0ED",
"HX c #BBD0E1",
"JX c #C2D6DD",
"KX c #C2D0ED",
/* pixels */
". o X * 0 e e 5 U W J [ fXoXNX<Xu.^.^.t.#.g { ^ ' d u i ' ^ ] ~ +.U.9.H.C.e 6 r r s { c g ( g d g 3.L.L.P.I.P./.H.r.kX1X2X+X_ % G 1 * X       ",
"J J E E U U r 1 0 r 5 x kXXX8X2XfXMXNXkXf 1 5 9 G G 5 1 5 5 1 5 [ DXkXkXE.9 5 t e 9 e 1 1 5 6 H 1 f.VXkXjXgXgX1XZXMXAXjXT.jX~ 6 U e 9 e t T T ",
"9 e e e e e e e 6 Y 1 x MX<X;XhXjXXX:XkXf G 5 9 9 5 r r U 1 e G x jXXXfXY.0 6 U Y 0 e e t E e E 5 f.jX<XT.+XjXjX2X2X`.2X1XNX7 E 5 5 6 6 6 5 5 ",
"1 6 6 6 5 5 e U 1 1 1 x $XVXkXxXVXxXfXOXz 6 5 9 0 5 5 1 5 2 r 6 V OX+XfXU.9 5 U G 0 6 1 1 5 1 e - g.AXFXNXkXkXkXmXnXkXbXvX+X> ; 1 1 9 e 1 1 1 ",
"j.x.l.l.l.6.6.4.n.l.x.j.%.3.S %.h.d.%.:.v.l.b.n.( J U e [ z.l.l.F.NX3X9XQ.5 1 e t 5.v.x.l.l.6.z.n.*.@.$.A S *.*.A A Z $.&.=.b.b.x.x.x.j.j.j.l.",
"VXNXkXkXNXDXNXNXjXkXFXK.2 1 9 U U 5 e r E.vXkXDXb 5 0 0 g.cXzXjXkXNXU.`. XU 5 6 9 y.qXFXnXzXhXkXnXg.1 5 5 5 5 5 J G 5 5 G 4 8XbXNXNXkXkXkXkXgX",
"Q.Q.T.T.XXXXXXXX%XT.1Xc.1 Y r L 0 0 t U W.2XjX0XA G 6 1 -.jX$X8X.XOXjXNX}.5 5 e E I.9X$XT.Q.OX$X3Xk.6 e 1 1 0 u 5 5 s r 9 % }.eX<X<X<X<XfX+X$X",
"kXkXkXkXkXkXkXNXXX<XcXK.e Y ; 5 P 1 5 G J.oXeXjXV J H 6 f.mXkX7XbXkXcXbX}.6 Y 5 5 }.gXBXrXcXkXbXFXx.2 1 U Q U 1 e 5 5 1 e e Y.CX$XMXjXkXkXnXkX",
"Z.4.6.c.j.V.g.t.BX<XvXi.1 t r 9 r G Q 5 Y.vXXXNXM.v <.d.*.V.l.0.n.*.n.l.x.S ;.h.D 6.6.l.6.g.b.M.V.+.5 5 U e e e U H e 5 5 5 Q.jXT.mXc.x.x.l.l.",
"G 1 1 5 5 U 6 $.jX2XAXm.H 3 5 U e 1 9 r G.SX+X2XvXlXzXVXk.2 5 2 5 H < 1 i %XNXkX#X( 3 U e 1 6 * & 1 e U U 1 e e 9 1 r t e r y.gX+XfX] 1 e 1 e ",
"U 9 9 r e e , %.kX<X%X0.s 6 e t r 5 U y F.jXfX2X8X@X{.kXg.5 Q r Y 1 r 5 ( Q.<XgX<Xo.J 9 9 7 H e 9 e t e 1 r r Y U G r 5 1 H I.AX1XgX[ r E G L ",
"G 1 e 6 1 r < h.DXfXzXF.$ 5 1 ; 1 5 G 1 W.zXnXBX5XhXrXbXl.1 U 6 5 e 0 U l jXgXzXcXs F e 9 G W t U e 1 1 r r r 5 1 5 9 e U 1 W.gX+XfXz 1 e 9 9 ",
"J 1 e 5 e U 5 #.R.u.J.x.' { { g z _ { x m.y.t.P.t.I.^.(.&.e e 5 G U 9 t f J.R.P.S.Z { { V r J 1 G 1 6 r r 1 1 e U U a g z z #XMXMXNXX.< 5 1 9 ",
"G 9 e r 9 t 1 2 e 1 r { MXMXjX3XrXhXjXOXd 6 G E 1 G F H t 1 6 9 Y 1 0 e Y * 5 G 2 [.lX4XkXS 5 r W Y 6 6 1 1 e e G s <XrXgX<XjX2XT.fX[ 6 U 5 5 ",
"G e 1 5 1 e E e : 9 1 ] nXp.XX8XjXfXgXkXR r 1 e e U G r e 1 6 9 e T 1 W 3 9 E Q e y.jXwXNXk 5 9 5 1 1 6 r U e 1 e r fXfXfXjXXXjXfXxXC 1 U 6 6 ",
"G e e Y 2 1 Y 1 G E 3 X.fXXXkXjXjXjX2X3XR 1 1 e Y U 1 9 e H W t e G 6 U e 0 1 ; 1 '.jX<XBXN 4 W e e r e e U 1 $ e ^ +XNXNX+XkXfX2XnX[ 6 E t e ",
"E < 5 Y r H 6 e ^ 9 9 x W.T.fXT.+XT.<X$Xa 9 ~ s e 5 T e 9 e 1 e 6 G d 1 q e ; 5 9 E.DX+XMX$.Y r P e Y H e r ~ r Y h (.U.oX$XOX+X2X|.v = ^ e ~ ",
"5 % 9 c.+XQ.XXXXR.OX+XK.u U r r E Y 1 g P.OX.XXXb s 1 1 5 5 Y 2 9 Q Y G 5 J 1 Y q R.jX@XgXT.$XXX<XT.2X2X<XU.2XQ.Q.H.a ~ 6 I r 2 Y w C..XQ.XXD ",
"E T U M.hXjXkXgXfXMX3XL.$ E r G 6 1 G 6 R.fX3XkXz Y 6 t e 1 Q e 1 e 9 r 1 H 6 K t W.gXjX3X<XjX{.oXfXlXfXkX2XjXMX1XXX$ E 5 J Q U 5 % A.lXXXnX,.",
"5 r 1 M.hX2X2X<XtX2XlXB.< 5 9 U 0 ; U e Y.oX9XjX=.J Y e e 2 G 6 r 1 9 5 Y 1 9 e 1 _.1XXX+X2X2X9X+X<XfXXX9XjX+X2X2XY.6 9 2 & 1 1 E 5 A.ZXjXvX;.",
"9 ; 2 m.gX2XMXNXMX8XzXB.I F 1 e G r U t E.NXQ.gXZ 2 2 e t r e 9 G e e G K 1 9 e > (.kXkXjXkXjXjXSX9XNXfX8XjXhX:XkXU.E e U r e T e 4 9.2XhXrX5.",
").(.~.%.h a m m ] ( c i U Q 1 e 5 9 r t l ( ( k m.K.F.(.%.6 Y 1 ' I.J.J.G.y.R.G.K.$.g o.R ( g g i d k a l d.@XjXjXQ.U e U e 5 5 U L f ~ m N =.",
"8XyXFXC % 5 r 5 $ t 5 1 1 U 6 G e 1 7 Y 1 e H 3 F.kXfXhX5.5 r U k kXkXCXCXzXDXfXzX> 1 r r 6 1 1 e U 9 ; 3 [ $X9X$X+X6 2 1 ; 6 0 ; Y 1 J r % f.",
"CXa.DX#.G U e Y G e t r e e e 1 1 U 1 1 r 1 e e M.1X2XbXg.` r e @.cX1XT.BX{.2X`.8X) ` 1 1 r 9 Y 2 G 9 9 G +.%X<X3XY.Y 1 J U H 9 9 5 6 E 1 6 f.",
"+XfXkX@.5 r e e 1 1 1 5 e e e e e 5 e e e e e e P.FXrXBXb.* G J x AXcXxXkXFXjXkX&Xc 1 e 5 6 1 U 2 Y G U 1 A AXkXnX`.* 6 5 6 e E E : 6 H E 3 h.",
"+XfXkX@.5 r e e 5 5 e 5 e e e e 5 5 e e e e e e g h.A h.k.7.n.9.f.S ..=. ...A A %.= 1 U e r 1 U e U e U 9 u *.3.A %.b.4.6.m.9 5 J 1 k.l.8.z.F.",
"+XfXkX@.5 r e e e e 5 5 e e e e e e e e e e 5 5 1 6 9 5 h.DXfXmXH.* G J 5 2 9 e 2 1 U U e e 1 5 t e e e e 9 r 1 6 ^ &XBXkXkXg 1 U t N.VX+XNXNX",
"+XfXkX@.5 r e e e e e e e e e e e e 5 1 5 5 5 5 6 5 e 1 *.nXU.NXG.% U 1 e 1 6 J e e U 5 e e 1 5 e 1 6 6 r U 5 G 1 r U.kX<X3XR 5 < 5 7.cXp.<X8X",
"jXfXkX@.5 e e e e e e e e e 5 5 e e 1 1 1 5 5 5 e G U 1 5.gXY.ZXN.t U r t e 5 J t e 5 1 e e e U r 6 5 5 U U 5 Y e f kXkXkXBXR 1 2 5 P.cXgXnX<X",
"jXfXkX@.5 e e e e e e e e e 5 5 e e e e 5 5 5 5 1 U 6 1 %.kXOXNXN.5 3 7 e 5 e 1 1 e 6 6 e e e U 9 e U U U t e 9 1 r l.g.M.f.%.S D @.b.x.x.4.K.",
"jXfXkX@.5 e e e e e e e e e e 5 e e e e 5 e e e 0 r 1 1 %.NX@XjXu.1 5 0 5 5 9 9 1 e e e e 5 e e e e e U t e e 1 Y 5 < L H ; _.VXkXNX[ G G , ,.",
"jXfXkX@.5 e e e 1 1 5 e e e e 5 e e e e e e e e U e 9 e -.7XfXgX0.5 Q ; t r 9 e 5 e e e 5 5 r 1 U e 1 r r 1 e 5 E 6 R Y 1 q E.eX<XcXC e r 1 h.",
"%XMXlXA 2 & H 9 e e e e e e e e e U 5 & U 1 e e 1 5 9 1 %.jX3XBXm.5 < 1 9 1 < e e & 9 U 1 t 5 0 U U e 1 e e 5 r 1 G t U J 1 `.jX3X2X$.1 6 U 3.",
"_.D.R.%.~ _ _ y 1 6 6 1 1 1 1 6 e 1 1 2 ) _ #.l z ( ( z g.J.!.^.M.{ ( ( ( ' l ( ! r t 6 1 E U $ 1 6 6 1 t U t U 9 e e 9 e 0 U.1XfXZXS g l g f.",
"1 r 0 M.kXrXFXx.5 e U U U e 5 e 1 Q U 2 OXgX;X+XMXjXMXOXf.6 1 % n +XNXMX+XBXkXjXgXk U U e 1 e U T T e 5 5 5 5 5 e 1 L G J H R.kXjXNXlXjXkXMXk.",
"e 1 9 M.kX+XjXk.1 e e e e e e e 9 e t 1 Y.kX3X9XfX<X9XNXg.5 E J c hXXX+X<X2X1XXX<Xu U r e 1 9 e 1 9 1 e e 9 e 9 U e H 9 e 9 Y.NXXXCXOX2XkXkXf.",
"J H G c.cXjXkX7.5 5 5 G 5 5 5 5 U G 5 1 J.lXfX<XoXgX3XgX5.1 t 5 } DX2XjX1X3X1XfXAX^ G 5 G 5 1 G H E G U e 1 5 U % 1 G 5 G 9 y.@X:XjXfXkXkX5XD ",
"1 Y 1 l.gXY._.j.0 r 9 9 r r r r r Y r d J.fX<X+XW.<X<X+Xd.6 U 1 x `.2XT.T.#X+XQ.J.k 9 r s & 0 R r r r r s r 5 E 9 U ~ r Y z S.8XOXW.+XQ.T.jXS ",
"U U 9 r U ! 7 S fX2XQ.Q.Q.+XQ.Q.+XT.+X*X_ U Q U T U r Y Y e Y U T W 9 q R r e 9 ^ K.jX2X`.`.Q.Q.2XQ.MX+X$Xn.= e 1 Y U.T.XXu.m t 2 s 6 T Y Y t ",
"5 E 1 9 1 5 3 $.kXkX<X<XjXjXfX<X<XfXkXjX' 2 r 1 6 6 ; G J 1 5 t % G 6 9 5 5 U 6 6 Y.eXQ.2XjX2XfXjXT.kX1XNXN.& E u T 1XXXMXNXs 4 U 9 6 9 2 G U ",
"5 G 6 e U r % k.MXjX2XjXjXjXjXjXjX9X3X1X~ 9 9 e 1 t U 5 r 1 1 1 r r r r 5 5 5 1 9 _.7XT.+XgXkX3XfXjX<X8XkX9.9 t e r 3X+XfX7Xr < Y 5 Y U U U 5 ",
"5 U G t r 5 6 >.kXkXkXkXkXkXkXjXrXkXlX.X{ 2 5 J 6 e e 5 r 1 r U 1 1 e e e e e r 0 L.kXlXBXfXjXjXNXNX6XqX9XS.) G 6 { Q.jXjX2XO.U e 1 1 1 1 e e ",
"5 e 1 4.!.L.G.4.] ] ] ] ] ] ] ] ] g p Z c.G.L.W.^ e e 5 e 1 r e e e e e e e e e Q _ ' ] { g { { ] / M m g <.F.G.u.6.V g g ] 9 9 e e r r 1 1 e ",
"P t 5 G.gX8XlX4.1 1 e e 1 1 1 1 6 1 3 ; W.lXMXVX} e e 5 e 1 r 5 e e e e e 5 5 5 5 1 $ 2 1 1 1 1 & G 1 9 G  .VXzXbXT.; 5 H J r 5 1 6 1 5 5 5 U ",
"J e G N.fXQ.zX4.G U U U U U U U 5 U G e Q.oX;XgX} 1 e 5 e e r 5 5 5 5 5 e e e e 1 e e r 5 5 U e 9 T 9 ; U } MXOX9X_.1 Y 6 G 9 e Y Y 5 1 e 5 G ",
"E % 7 c.MXDXkX7.1 6 r r 6 6 e r 9 e 5 e Q.lX<XkX[ 1 e 5 e e e 5 5 e e e e 5 1 1 6 t U e e e e e 1 E 5 1 G @.gXgXjXI.9 e 1 6 : e U 5 r 0 0 1 , ",
"l.7.l.&.=.%.:.| e e e e e e e e 9 e t r G.MXfXVX} 1 U 5 e e 1 e e e e e e 5 1 1 1 G G 1 t E 5 e % U G 6 5 ] fX1XfXT.l.g.g.Z.f J U 1 =.j.g.n.g.",
"BXcXNX@.3 & 9 G e 5 5 e e e e e 6 5 9 r G.ZXfXXX[ 1 e 5 e e 1 e 1 1 1 e e e e e e E U e q 1 1 e e e G u % +.+X9XfX2XDXxXxXNXa 5 5 & ~.SX6XbXkX",
"'.<X1XA 6 e 9 9 e 1 r r 5 G Y 1 t 1 r 1 H.BX2XNX@.& 9 t e r 1 e 9 6 U e e e e G 9 1 Y U Y 5 e 1 U ; r 1 9 V kX1XQ.+X+X2Xp.$X0 t R 1 m.jXY.gXfX",
"$XfXkXC 5 U r 5 e 9 9 e e e e 9 9 G J 5 _.bXrXnX#.2 e e 1 r 1 U t 6 e 1 2 1 e 6 U Y r r 6 1 1 G r 3 G E 1 x VXkXDXjXfXgXgXAXj 1 1 1 F.jX+XnXT.",
"9X1XvXb 3 U 5 G Y r 6 5 Y e 6 r A ..&.S g.4.b.c._ 6 Y U 5 Y 5 U G H 5 e Y U e e 5 G e Y 5 C D %.D %.A S ..d.b.v.v.x.l.n.l.x.3.A S S !.jX<XgXfX",
"MXT.NX@.1 e % e e U 1 5 U 5 1 r SXkXxXgX' 1 E 6 9 9 e e 9 e 1 e G Y 1 e U U 5 1 9 U 1 U G B.mXDX1XAXzXkXFXB.e 1 9 U 1 9 3 8 OXFXfXjXfXMXMXQ.jX",
"MXfXBX@.5 e 1 Y e e r 1 e e r / 4XfXU.3X_ e e e 1 r r 6 0 0 1 e e e 9 9 6 6 6 6 1 r $ e r m.:XQ.SX2X2XQ.;XF.5 q 9 2 H e E e  X;XjXkXQ.+XMX`.jX",
"3XgX9X[ 3 1 e G 1 1 6 5 1 5 6 r kXlXkXZXg 5 5 e 1 G G 5 5 1 5 5 1 1 U Y 5 6 1 e e 5 6 U 1 B.nXT.fXfXkXNXzX/.3 e t $ G 5 U Y Y.6X`.1XjXfXgXkXfX",
"MXfX<X*.z k V f g z z z g ] z z /.F.J.N.Z d | ] g ] g g g g ] ] ' 1 K G e z g g o.d g g j l.$XD.R.Y.y.t.P.V.z _ { c E G 1 2 G.MX8XgX|.H.G.K.Y.",
"$X<X5X$X$X<XkXNXjXjXkXjXjXMXMXT.0 r G E OXkXgXlXkXkX3XkXjXkXkX3XN.0 1 % B  XNXwX8XNXjXjXBXA $ G E G 5 r F ..cXMXjX}.9 U 9 < W.jXkXjXl 5 6 5 >.",
"9XfXfXeX2XfXjXoXMXQ.fXoX9X`.jXW.t 2 Y 9 R.3X2XjX+XXX+X+XXXXXjXjXB.G e L R XXgX8XtXjX%XhXkXX.U 9 1 G U 6 5 V MXT.kXW.K 2 & J J.jXT.zX[ 1 U 5 j.",
"NXfXjXfXZX8X8XQ.3XMX<XfXkXjXgXT.U 5 G 9 L.kX2XfX3X<X2X2XfX<X3X3XK.1 r 6 w MXfX6XjX`.+XrXkX .G e 9 U e 6 6 x NX2XDXU.U e e t i.NX1XkX[ 1 U 5 5.",
"OXY.Q.Y.$XY.T.gX<X$X+X2XW.`.2XR.e r e w m.T.T.Y.Q.T.Q.Q.T.Q.8X2XC.u 9 ; k 0XW.Q.$X8X2XXXOXb 1 e e U 1 2 r @._.$X;X'.Y r r r '.p.#XI.{ 1 e e *.",
"U r P Y T 9 8 *.gXjX@XF.w r 0 t r Y 5 e u u 0 9 6 r r r r r r 6 D Q.CXMXP._ 9 q 0 0 & 0 y 1 1 Y 1 U e r e 1 i = ; M W.2X2XW.M 0 r d r 1 r 5 7 ",
"e 0 5 Y U T 4 -.ZX2XNXS.1 U 1 0 % 6 5 G G 5 G K 1 e 9 1 1 e e 1 N cX2XrXfXe 5 6 G Y G E E Y 6 4 5 e 1 r U e U e U 9 1XhXfXkX9 K E G G 1 e G L ",
"5 ; 1 Y 1 e 3 *.lXY.hXF.1 Q e 9 ; 6 r 2 e q q e 6 G 5 6 5 5 6 L #.3X#XoXY.e H E 5 U r r % 9 9 e 5 9 1 Y U G G 5 % f 2X+X$X2X( & 6 2 5 e U Y 5 ",
"J 9 Y e 9 9 1 D rX1XkXH.8 1 5 U r G e < L 6 1 6 1 G 5 r G G 1 G m <XkXkXE.Y 5 G 6 9 e r e e U e U 9 1 e 1 6 U r G p kXQ.Q.kXp G 1 2 1 e t r 1 ",
"J % Y 5 r Y F g +.{ l %.S.I.!.A.u 5 t $ 5 6 ; t % 1 9 w e 1 % 1 b VX<XfXqXB.0.J.N.p 9 < Y G H 1 G e 5 T 9 6 e ; U f 2XjXkX2X/ G t t 9 e e r U ",
"U U e e e e e 5 5 U r l DXXX1X<Xr U 2 ; e e % 1 r Y ~ / R 1 1 5 ] 1XhXfX{.vX3X6XqXg 1 2 e 9 9 U 1 U G 5 e Q U 6 E t 2X<X<XjXy U 5 5 5 5 e e e ",
"r r r r e r r 6 r r 0 c kXXX1XT.y T s 9 5 1 1 L 6 s s u 0 1 r 1 ] kX2X4X.X$XXX2X8Xf G r e e 9 9 6 Y U 2 2 1 1 1 1 w <XjXjXfXp 1 5 5 5 Y Y Y 5 ",
"G G 5 e e e e 5 Y 5 1 ' 3XQ.NXQ./ Y ~ e 1 1 1 5 5 Y ~ Y r 5 5 5 h gXNXbXkXMXxX7X#Xz 1 2 L K J 4 < 5 5 e r Y U U 5 y Q.$X$X+X/ 6 1 e e e e e e ",
"Y U e e e e e e U e 9 +.jX.XjX+Xu y s f h.z.6.z.6.z.z.m.m.4.6.l.h.S x v d. .A A D 5.8.8.4.k.b.0.x.+.e e r H 5 1 5 r fXjXjXfXs 1 e e e e e U U ",
"G G U 5 e e e e 5 5 1 ' 6XfX1X<Xu y r p '.bX;X;XkXnXnXnXgXfXgXnX~.8 % e 6 2 5 1 8 ].bXkXNXkXkXkXVXb.9 e 5 G Y 1 U r jX1X1XjXs G 5 5 e e e e G ",
"Y Y Y r r r r r U U 1 ] kX+X<Xi.^ / r p 8XbX{.{.<XkXnXkXjX<X<X<Xz., ; t 5 0 K 5 U '.5XT.jXfXkXQ.gX4.2 U 5 Y r 0 U s fX1X1XjXd G r r r e r r r ",
"5 5 5 5 1 1 1 1 1 5 1 { E.OX`.I.r e Y R _.ZX$XMXG.+XMXMX+XY.T.U.m.4 8 1 5 1 5 1 5 /.+XQ.Y.i.fX}.+Xh.1 Y 5 1 5 1 5 ~ |.$X`.|./ 5 G 5 5 5 5 5 5 ",
"e.e.e.e.r.r.r.r.r.w.w.a.-X=X,X>XO + 1.# ,XuXuX,XpXaXaXsXsXiXaXJXyX9.s.r.a.q.q.2.q.pXdXHXsXdXKXpXsX:XO 2.O @ w.w.w.a.iXaXaXiXa.w.r.r.e.e.e.w.w."
};
