/* XPM */
static char *eb3db7584d994cd0c05fa63594277ea76CDb9Zg8xv6cmGjI[] = {
/* columns rows colors chars-per-pixel */
"64 64 243 2 ",
"   c #4D260C",
".  c #4D290C",
"X  c #51260D",
"o  c #532B0D",
"O  c #592E0D",
"+  c #5D320D",
"@  c #4D2611",
"#  c #4E2C15",
"$  c #4D2C19",
"%  c #512611",
"&  c #522C14",
"*  c #5B2E12",
"=  c #532E1A",
"-  c #4E321B",
";  c #5D3313",
":  c #52321C",
">  c #5B361B",
",  c #5C3819",
"<  c #63320E",
"1  c #642F16",
"2  c #643215",
"3  c #693316",
"4  c #653917",
"5  c #6C3A16",
"6  c #653319",
"7  c #6A331B",
"8  c #653A1A",
"9  c #6D3C1A",
"0  c #703917",
"q  c #733E1B",
"w  c #4C3627",
"e  c #533523",
"r  c #5A3A26",
"t  c #4D3931",
"y  c #643B23",
"u  c #6B3C21",
"i  c #643D29",
"p  c #6C3E28",
"a  c #6C431C",
"s  c #73411B",
"d  c #7A471E",
"f  c #754A1F",
"g  c #7A491E",
"h  c #5F4128",
"j  c #4B443C",
"k  c #5A4636",
"l  c #644224",
"z  c #6C4223",
"x  c #62412D",
"c  c #6B432E",
"v  c #6C4B2D",
"b  c #734524",
"n  c #744A25",
"m  c #7D4B23",
"M  c #774729",
"N  c #754C2B",
"B  c #7A4E2C",
"V  c #795328",
"C  c #7B522C",
"Z  c #674734",
"A  c #6C4C32",
"S  c #734C34",
"D  c #7A4E30",
"F  c #764E3A",
"G  c #6A513D",
"H  c #745133",
"J  c #7A5233",
"K  c #78583C",
"L  c #4C4A49",
"P  c #574B44",
"I  c #57544C",
"U  c #575555",
"Y  c #6B5143",
"T  c #6B5646",
"R  c #755847",
"E  c #6D5A54",
"W  c #7E6247",
"Q  c #66655F",
"!  c #776658",
"~  c #656663",
"^  c #6C6B6A",
"/  c #716E6B",
"(  c #727376",
")  c #767678",
"_  c #7B7A7C",
"`  c #804C24",
"'  c #825424",
"]  c #885426",
"[  c #82532B",
"{  c #89542A",
"}  c #845A2A",
"|  c #8C5B2C",
" . c #935D2D",
".. c #9D5F2A",
"X. c #835532",
"o. c #845A35",
"O. c #8C5C33",
"+. c #865C3C",
"@. c #8A5D3B",
"#. c #935E33",
"$. c #945F37",
"%. c #8F622C",
"&. c #96642D",
"*. c #99632D",
"=. c #98672C",
"-. c #8C6237",
";. c #956332",
":. c #9A6432",
">. c #956A33",
",. c #9B6A35",
"<. c #94653A",
"1. c #9B6639",
"2. c #966A3A",
"3. c #9B6C3B",
"4. c #9E7137",
"5. c #9E723D",
"6. c #A16B37",
"7. c #A26D3B",
"8. c #A07037",
"9. c #A3723D",
"0. c #8B6645",
"q. c #966C46",
"w. c #9D6C41",
"e. c #9D7342",
"r. c #9A744D",
"t. c #9C794A",
"y. c #8A6954",
"u. c #9B7651",
"i. c #9E7C58",
"p. c #A06E43",
"a. c #A37442",
"s. c #AA7643",
"d. c #A47A45",
"f. c #AA7A45",
"g. c #A6774B",
"h. c #A47B4A",
"j. c #AB7C4B",
"k. c #B17E4B",
"l. c #A37C56",
"z. c #AC7E52",
"x. c #A37D5A",
"c. c #86746C",
"v. c #877672",
"b. c #927D75",
"n. c #A7814C",
"m. c #AC824C",
"M. c #B2844D",
"N. c #AD8352",
"B. c #A98754",
"V. c #AC845B",
"C. c #B28453",
"Z. c #B38A54",
"A. c #B78959",
"S. c #B38C5C",
"D. c #B9935E",
"F. c #888379",
"G. c #97857C",
"H. c #A88864",
"J. c #AC8A64",
"K. c #B38D63",
"L. c #B58D67",
"P. c #B69563",
"I. c #BB9463",
"U. c #BC9865",
"Y. c #B5926C",
"T. c #BA956B",
"R. c #BD9A6B",
"E. c #BB9A73",
"W. c #BFA172",
"Q. c #C2905B",
"!. c #C49965",
"~. c #C29C6C",
"^. c #C49F77",
"/. c #C7A16D",
"(. c #C4A373",
"). c #CBA475",
"_. c #C9A973",
"`. c #C5A57A",
"'. c #CBA67A",
"]. c #C5A97D",
"[. c #CBAB7D",
"{. c #D6AD76",
"}. c #D2AB7B",
"|. c #D6B077",
" X c #D4B37D",
".X c #7E8386",
"XX c #868685",
"oX c #8A8C8E",
"OX c #948A84",
"+X c #958986",
"@X c #95938C",
"#X c #8B8E90",
"$X c #8F8F90",
"%X c #969796",
"&X c #9B9C9C",
"*X c #A19691",
"=X c #A9A69C",
"-X c #9B9FA0",
";X c #A19FA2",
":X c #AAA6A4",
">X c #A9A4A6",
",X c #ABA8A4",
"<X c #ACACAC",
"1X c #B6AAA4",
"2X c #B6ACA6",
"3X c #AEB0AD",
"4X c #AFB2B1",
"5X c #BABAB7",
"6X c #CCAD83",
"7X c #CAAC84",
"8X c #D2AD84",
"9X c #D2AF8A",
"0X c #CDB184",
"qX c #CEB58A",
"wX c #D4B385",
"eX c #D8B786",
"rX c #D3B58A",
"tX c #D4B98C",
"yX c #D7B890",
"uX c #C1B4AB",
"iX c #C7BAB3",
"pX c #C4BCB4",
"aX c #C6C4BB",
"sX c #C1BFC3",
"dX c #BEC1C0",
"fX c #C5C4C5",
"gX c #C8C7C6",
"hX c #C8C8C7",
"jX c #CAC6C8",
"kX c #CAC9C9",
"lX c #CFD2CE",
"zX c #D6D6D5",
"xX c #DBDBDB",
"cX c #DFE3E1",
"vX c #E6E5E6",
"bX c #EDEEEE",
"nX c #EDF0EF",
"mX c #F1F0EF",
"MX c #EFEFF1",
"NX c #F6F6F7",
"BX c #F8F9F7",
"VX c #F7F7F8",
"CX c #FCFDFD",
/* pixels */
"2 2 2 2 2 2 2 6 6 6 6 6 3 3 3 2 2 2 2 2 2 2 2 2 2 2 3 3 3 2 2 2 2 2 2 3 3 3 2 2 2 2 2 2 2 2 2 2 2 2 3 3 3 2 2 6 6 2 2 2 2 2 2 2 ",
"r.r.r.u.r.b 2 2 9 m m m ` ` ` m m m m m m m m m m m m m m m m m m m m ` ` ` m m m m m m m m m m m m m ` m -.@.6 6 9 r.u.u.r.r.n ",
"U.R.0XtX6XD 2 3 d ;.;.*.*.*.*.=.&.&.&.&.,.,.&.&.&.&.&.&.&.&.&.,.=.&.&.&.&.*.*.&.&.&.&.&.,.8.&.8.,.&.&.&.&.I.V.6 6 z K.E.wXtXwXo.",
";.5.}.wX7XJ 6 3 d g.a.&.,.,.7.D.,.&.;.&.Q.j.,.m.8.&.k.8.&.;.>.M.3.&.;.,.9.9.:.:.A.f.&.5.d.f.,.Q.9.&.8.:.,.D.V.6 2 8 O.3.}.eXwXo.",
":.,.D.(.7XJ 6 6 m g.a.5.~.~.d.m.3.2.A.e.e.2.N.eXI.2.g.j.C./.Z.5.Z.g.3.~.}.~.3.2.j.e.Z. XU.3.,.5.,.,.Z.Z.'.6XV.6 2 5 #.3.A./.0X+.",
":.9.j.n.7XJ 2 2 @.7X'.[.rXrX7X`.].'.6X].'.`.6XrX0X'.}.8XwXyXwX].rX8X[.wXrX8X'.'.'.'.wXtXrX'.'.).'.'.[.8XyXyXH.6 2 5 $.a.m.t.6X+.",
":.:.,.N.7XJ 2 2 B x.x.x.x.x.x.x.x.x.x.x.x.x.x.i.x.x.x.x.x.x.x.x.x.x.x.l.l.x.x.x.x.x.x.i.i.x.x.x.x.x.x.x.x.x.-.6 2 5 $.;.>.t.0X+.",
",.6.;.N.7XD 6 2 2 2 2 2 ; ; 2 2 2 2 4 2 2 2 2 2 2 2 4 4 4 2 2 2 2 4 4 4 2 2 2 2 2 ; 2 2 2 2 2 2 2 2 2 4 4 ; 4 6 2 5 ;.3.&.h.0X+.",
"s.Q.:.N.7XD 2 2 2 2 2 2 2 ; 2 2 2 2 4 2 2 2 2 2 2 2 2 4 2 2 4 2 4 2 2 2 2 2 2 2 2 ; 2 2 2 2 2 2 2 2 2 2 ; ; 4 6 2 5 p.Q.,.h.0X+.",
":.6.:.z.7XD 2 2 b B B B B B B B B n 4 4 z B B N B B B B B N 4 2 8 N N N B B B B B N 9 2 6 n V B B B B N N N z 2 2 5 ;.,.&.t.6X+.",
"s.s.;.N.7XD 2 4 V.9X7X7X7X6X6X6X9XL.4 ; 0.6X6X6X8X8X8X8X6XE.n 2 B '.8X6X6X6X6X6X6X6X@.2 u E.7X7X7X7X7X7X7X6Xr.2 2 5 p.s.;.h.7X+.",
"5.n.!._.7XJ 6 4 K.7XT.`.rXrXrXrXtXY.8 ; q.7XT.(.wXrXtXtXtX].n 2 C [.~.R.wXrXqXqXqXrX@.1 9 (.(.T.7XrXrXrXrXrXu.2 2 9 3.f.!._.0X@.",
";.d. XwX7XJ 2 2 V.C.;.a.}.rX(.).tXY.8 ; q.L.;.3.(.rX[.(.tX].n 6 C I.1.;.I.wX0XW.qXrX+.2 9 T.a.;.N.wXwX~.[.tXu.2 2 9 #.9.|.eXwX+.",
";.>.C.~.7XJ * ; H V | ,.).rXh.j.wXY.8 ; q.N.&.&.U.tXK.a.[.].n 2 C K.:.&.Z.wX~.3.(.rX+.2 9 S.3...a.0X[.3.K.tXu.2 2 9 ;.>.M.~.0X+.",
">.m.7.m.7Xv k c.v.! z ;.'.wXd.,.].Y.8 ; q.N.&.&.R.tXV.;.~.].n 2 C K.:.&.Z.eX!.;.S.rX+.2 9 S.3.:.a.0X).,.h.rXu.2 2 5 ;.M.5.d.0X+.",
",.A.9.j.E.Z @XkXxX<XE N ).'.3.;.~.Y.4 + <.g.%.-.I.8Xg.%.S.^.n ; B V.%.| N. XZ.| z.8Xo.+ 9 V.<.;.a.6X~.:.9.0Xu.2 2 5 ;.A.9.d.[.o.",
"&.;.%.m.J.G 5XCXCXvXv., K W S A R K h r A H v v K W H v K R x x Z K v N K W K A F W A r l K A A S W H { 5.[.u.2 2 9 ;.;.&.h.6X+.",
"*.,.2.m.H.G aXCXCXbXb.T =X,X:X:X:X,X,X,X:X:X:X,X,X,X,X:X:X:X:X:X:X,X=X:X:X:X:X:X:X:X,X,X,X,X,X:X:X*X! m ,.[.u.2 2 9 ;.,.3.h.6X+.",
"*.f.)._.H.Y ,XvXBXjXv.c.mXBXVXBXBXBXVXVXVXVXBXBXBXBXBXBXBXBXBXBXVXBXBXBXBXBXBXBXVXVXVXBXBXBXBXBXBXzXF.C ,.[.u.2 2 5 &.9./.(.0X+.",
"*.f.eXeXH.Y @X5XxX&Xc.! gXkXkXhXkXkXkXkXkXkXkXhXgXkXkXkXgXhXhXkXkXkXfXkXhXgXfXhXkXkXkXkXgXfXgXkXhX5XF.C 3.[.u.1 2 5 &.8.{.eX0X+.",
"&.,.D.).H.Y @X5XxX&Xc.t ^ ^ ^ ^ ^ ^ ^ ^ ^ ^ ^ ^ ^ ^ ^ ^ ^ ^ ^ ^ ^ ^ ^ ^ ^ ^ ^ ^ ^ ^ ^ ^ ^ ^ ^ ^ ^ _ F.V ,.].u.1 2 5 &.;.Z./.6X+.",
"*.&.>.B.H.Y @X%X<X@Xc.P oXoXoXoX#XoXoXoXoXoXoXoXoX#XoXoX#X#X#X#XoXoXoX#X#XoXoXoXoXoXoXoXoXoXoX#XoX%X+XV >.].u.1 2 5 &.&.;.m.6X+.",
";.;.A.}.J.T XXL L / v.T 1X1X1X2X2X2X1X1X2X2X2X2X2X2X2X2X1X1X2X1X1X1X1X2X2X1X2X2X2X2X2X2X2X2X2X2X2X1Xb.B ,.`.u.2 2 5 ;.&.M.}.0X+.",
"3.d.j.~.J.R =X( ^ %X+X$ # # # & & # # # # # = # & & & & & # # # $ # # & $ $ $ $ $ $ $ = & # # # - - % m ,.`.l.2 2 5 2.j.f.U.0X+.",
"3.d.3.S.J.e +XaXaXuXY % , o o O ; ; o o * ; * O 4 ; * * ; , o . o o O O ; ; o * ; , * o X O O O ; , + ] ,.(.u.2 3 0 <.f.,.B.0X+.",
":.,.~.wXE.> : R y.i   n S.-.| O.z.H.4 ; B $.O.O.V.w.O.O.r.T.z ; s O.| | j.h.| | <.R.o.; 6 | | | 3.N.%.&.&.~.u.2 2 9 #.,.!. X0X+.",
":.,./.eX9Xv @ @     + -.D.>.*.:.A.T.4 < ` 1.;.:.A.8.&.*.d.`.N 2 s ;.&.&.Z.f.&.&.,.'.+.1 3  .*.&.s.Z.&.&.&.~.u.2 2 5 #.,./.eX0X+.",
";.;.d.R.7XJ o o ; a | ,.Z.&.*.*.A.T.8 < m ;.:.*.Z.,.*...d.`.M 6 s &.&.&.M.d.*.*.,.).+.1 3  .*.*.9.M.&.&.*.R.u.2 2 5 #.;.5.U.0X+.",
":.M.m.I.7XC 2 3 [ ;.:.6.m.&.&.*.C.T.8 3 g ;.:.:.M.:.*.*.d.`.N 2 q &.&.*.m.9.&.&.,.`.-.6 7  .*.&.9.f.&.&.*.R.u.2 2 0 #.j.m.U.7X+.",
":.7.,.n.[.C 2 3 ] &.*.6.f.&.&.*.C.T.8 3 g ;.:.:.f.:.*.&.e.`.N 2 s &.&.:.j.,.&.&.,.(.-.6 7  .=.&.5.s.&.&.*.I.u.2 2 0 #.7.:.h.7X+.",
";.,.d.B.[.C 6 7 ] &.&.,.9.&.&.*.z.Y.8 2 d ;.;.*.s.:.&.&.e.(.N 2 s &.&.*.s.,.&.&.,.(.+.* 2 m { O.3.3.&.&.*.I.u.2 2 5 #.,.s.n.7X+.",
";.Z. X~.].C 6 7 ] &.&.:.,.*.*.*.z.Y.8 2 d ;.&.&.7.:.&.&.e.(.M 2 s &.&.&.,.*.&.&.:.r.h - e e e , m ;.*.&.*.I.u.2 2 5 O.m.|.~.6X+.",
";.f.U.P.7XJ 6 7 ] &.&.*.*.*.*.*.z.Y.8 < g ;.&.&.&.&.&.&.e.(.n 2 s &.&.&.*.:.:. .s r P F.<X4XoXT e 6 | &.*.S.u.2 2 5 #.a.D.P.0X+.",
">.5.>.N.7XB 6 3 ] &.&.*.*.*.*.*.j.Y.8 2 g ;.&.&.&.&.&.&.3.R.n 2 s &.*.:.*.*.#.9 e ^ :XvXCXCXnX3X^ t ,  .*.S.u.2 2 5 <.5.;.h.6X+.",
"d.!.,.N.].B 6 3 ] &.&.*.*.*.*.*.g.L.8 < g ;.&.&.&.&.&.&.3.I.M 2 s &.*.&.&.:.M w ^ $XdXCXCXCXCXlX%X) t a *.S.r.2 2 5 e.!.,.h.6X+.",
",.7.;.m.].B 6 7 { &.&.&.&.&.&.*.d.K.4 < d ;.&.&.&.&.*.&.2.T.M 2 s &.*.&.&. ., P <X-X4XNXCXCXBXfX&X4XQ : | S.r.2 2 5 ;.4.>.h.6X+.",
":.,.M.N.[.B 6 7 { &.&.&.*.*.=.*.s.K.6 < d ;.:.*.&.&.*.*.3.T.M 2 s &.*.&.&.] : / kX&X&XdXxXxXfX:X&XkXXXe ' N.u.2 2 5 ;.,.M.n.6X@.",
":.:.3.m.[.B 6 7 { &.&.&.*.*.=.*.a.J.4 < d :.:.*.&.*.*.*.3.T.M 2 s &.*.&.*.] : F.lX$XzXcX4X%X&X&XXXsX:Xe g N.r.2 2 9 #.:.7.h.6X+.",
":.:.&.m.[.C 6 7 { &.&.*.*.*.=.*.9.J.4 < d :.*.*.&.*.*.*.1.P.M 2 s &.&.&.*.] : F.lX) zXBX5X%X%XXX~ fX;Xe g N.r.2 2 9 #.:.*.d.[.+.",
",.A.5.n.7XC 6 7 ] &.&.*.*.*.*.*.7.K.4 < d ;.;.*.&.*.*.*.:.P.M 6 q &.&.&.*.{ : Q zX$X~ ) ( ( ~ L _ xX_ e ' j.r.2 2 9 ;.A.s.d.}.@.",
",.d.e.S.7XC 6 7 ] &.&.&.*.&.&.*.7.V.4 < m ;.;.&.&.;.*.*.:.S.M 2 q &.&.&.&.&.8 j %XzXoXU L L L _ kX<XP >  .j.r.2 2 8 &.9.e.B.7X@.",
"&.3.).wX7XJ 2 7 ] &.&.&.&.&.&.*.7.V.4 < m ;.;.&.&.;.*.&.>.A.n 2 q &.*.&.&.&.[ : P $XfXfX<X<X5XfX&XI - n *.g.r.2 2 5  .,.~.0X0Xo.",
"&.4.).wX7XJ 2 7 ] &.&.&.&.&.&.*.6.V.4 < m ;.;.&.&.;.*.&.>.Z.n 2 q &.&.&.&.*.*.8 w L U ( XXXX) U L w ;  .*.j.r.2 2 5  .,.).wX0Xo.",
"=.&.7.K.7XB 2 3 ] &.&.&.&.;.&.*.6.C.5 < g ;.;.&.&.;.*.&.*.Z.M 2 q &.&.&.&.*.*.f . w t j j L j t w @ a *.*.s.r.4 2 5  .:.w.B.0X+.",
"&.d.I.'.7XJ 2 7 ] *.&.&.&.&.&.*.6.z.5 < g ;.&.*.&.&.*.*.*.C.M 6 s &.&.*.*.*.*.} ; @ @ # $ $ # @ @ & [ :.*.s.e.2 2 5  .s.I.(.0X+.",
":.N.}.wX7XJ 6 7 ] *.*.*.*.*.&.*.3.z.5 < g ;.;.&.&.*.*.*.*.m.M 2 s &.&.&.*.*.*.;.a     X % X X   @ 8 ;.*.*.s.e.2 2 5 #.g.[.wX0X+.",
":.,.N.I.7XJ + > u [  .*.*.*.*.&.,.z.5 < g ;.;.&.&.*.*.*.*.m.M 2 q &.&.&.&.&.&.;.| 8 X @ @ @ % X ; } ;.&.*.9.q.6 2 5 $.:.N.U.0X+.",
";.s.j.h.6Xv k c.v.R z | *.*.*.&.>.g.5 < g ;.;.&.&.*.*.*.*.j.n 2 q &.*.&.&.&.&.&.&.2.n   %   % 6 | &.;.&.*.8.q.4 2 5 $.9.m.h.6X+.",
";.;.:.m.`.A +XgXzX<XT n *.*.*.&.;.g.5 < g ;.;.&.*.*.*.*.&.j.n 2 q ;.:.*.*.*.*.*.&.d.o.* * 9 `  .:.:.;.&.*.7.q.4 2 5 $.;.;.h.6X+.",
"3.a.;.m.K.G 5XBXCXvXv., N N N N N J , > l N B B N N N N N K y > y S N N N N B B N J v r y N N N N N n %.*.8.q.2 2 5 1.f.;.h.6X+.",
"f.A.*.m.J.G aXCXCXbXb.Z +X+X+X+X+X+X+X+X+X+X+X+X+X+X+X+X+X+X+X+X+X+X+X+X+X+X+X+X+X+X+X+X+X+X+X+X+X+XR m *.,.<.2 2 5 w.Q.,.h.6X+.",
":.,.&.m.J.G ,XbXBXkXv.! bXbXmXMXbXbXbXbXbXbXbXbXbXnXnXnXbXbXbXbXbXbXbXnXnXnXnXnXbXbXmXbXbXMXMXnXMXzXG.C *.,.<.2 2 5 ;.,.*.h.6X+.",
"j.f.3.S.H.Y @XaXxX;X) ! zXxXxXxXxXxXxXxXxXxXxXxXxXxXxXxXxXxXxXxXxXxXxXxXxXxXxXxXxXxXxXxXxXxXxXxXxXfXF.C *.,.-.2 2 5 a.j.,.N.6X+.",
"5.f._. XH.Y @X5XxX;Xc.k _ _ _ _ _ _ _ _ _ _ _ _ _ _ _ _ _ _ _ _ _ _ _ _ _ _ _ _ _ _ _ _ _ _ _ _ _ XXF.C ..,.@.4 2 9 <.h./. X0X+.",
";.d.|.eXH.Y @X%X<X$Xv.k ( ( ( ( ( ( ( ( ( ( ( ( ( ( ( ( ( ( ( ( ( ( ( ( ( ( ( ( ) ) ) ( ( ( ( ( ( .X+XJ ..,.@.4 2 9 O.e.{.eX0X+.",
";.;.d.I.H.T F.I L ^ v.R iXpXpXpXpXpXpXpXiXiXpXiXiXpXpXpXpXpXiXiXiXpXpXpXpXpXpXpXpXpXpXpXpXpXpXpXiXpX+X[ ..,.O.4 2 5 #.;.s.A.[.+.",
",.A.5.B.H.T =X/ ~ @XG.e i x x h h h h i x r x x x x Z Y Y Z x x x h x x x x x x x x x x x x x x i x = M *.:.O.6 2 5 ;.A.s.a.[.+.",
":.C.3.B.J.> *XaXaXuXT @ @ % % X   . .             . > : r : . @ @ .   X X % % & o   . @ . X X X X % o m *.,.| 6 2 5 ;.C.8.d.8X@.",
"a.C.>.B.E.; = R y.Z @ 9 [ [ [ [ [ C 4 O 9 B B V V V O.X.@.o.9 ; 8 C ' ' ' ' [ [ ' } s * 2 m ' ' ' [ [ %.&.:.[ 6 2 5 3.Z.>.h.6X+.",
"1.3.N.~.].n X     @ * | *.*.*.*.:.;.5 2 m $.:.3.3.<.w.w.p.w.s 2 q <.3.,.&.&.:.;.,.9.X.u 7 #.*.*.*.&.,.,.,.3.[ 6 6 5 &.>.h.U.0X0.",
";.3.'.wX7XB O O * 9 ] *.*.*.*.*.:.#.5 2 m 3.w.3.3.a.w.3.w.<.s 2 B w.3.a.;.;.;.3.a.3.B p M #.;.;.;.3.3.,.,.3.@.u 4 5 &.>.).rX9X0.",
"#.;.S.(.`.N 2 2 B <.;.:.:.:.*.*.:.| 5 3 m a.;.>.a.3.w.3.w.<.9 u M <.3.a.;.;.3.3.>.3.X.8 u <.;.;.3.7.;.;.,.;.[ N 8 8 | 2.J.E.7X0.",
"q 5 a z n 8 4 4 b M M m m g g g g b 4 6 B B C } m f [ C } B 8 M u X.[ n n m X.m X.X.X.y u B m m O.m [ [ V } N u N 6 9 D z H J N ",
"y y l l y y y y y y y y y y y 8 8 y y i K c F i y y S v S v p F c F y y y v S A S F A c F l y y S c F i y y S l F y i F c S y y "
};
