/* XPM */
static char *_dd64fecdccc4b3eecbad1252fde78fdBENWi3s6xsL7roXi[] = {
/* columns rows colors chars-per-pixel */
"64 64 216 2 ",
"   c #0F1616",
".  c #081C1A",
"X  c #0E1C1B",
"o  c #121313",
"O  c #191B16",
"+  c #121D1B",
"@  c #1C1C1B",
"#  c #04231E",
"$  c #0C221F",
"%  c #15211F",
"&  c #1E211E",
"*  c #21211D",
"=  c #171F20",
"-  c #201F20",
";  c #032521",
":  c #0C2622",
">  c #032B24",
",  c #0D2B26",
"<  c #032E29",
"1  c #0C2D29",
"2  c #152322",
"3  c #1A2524",
"4  c #152A26",
"5  c #1A2924",
"6  c #132E2A",
"7  c #1C2D2B",
"8  c #04312A",
"9  c #0B322B",
"0  c #13322D",
"q  c #1B322E",
"w  c #123330",
"e  c #1D3531",
"r  c #143A33",
"t  c #173A36",
"y  c #1C3B35",
"u  c #242522",
"i  c #292B27",
"p  c #2C2D2A",
"a  c #25312C",
"s  c #32332F",
"d  c #223532",
"f  c #233B36",
"g  c #2A3B35",
"h  c #233D39",
"j  c #343632",
"k  c #363A35",
"l  c #3A3B35",
"z  c #383738",
"x  c #353A38",
"c  c #3B3B39",
"v  c #1B4237",
"b  c #1C423C",
"n  c #24433D",
"m  c #2C433C",
"M  c #3F4039",
"N  c #41433E",
"B  c #1D4742",
"V  c #244541",
"C  c #2C4541",
"Z  c #244A44",
"A  c #2B4B45",
"S  c #274E49",
"D  c #2B4E4A",
"F  c #314A44",
"G  c #364D49",
"H  c #2C5348",
"J  c #2C534C",
"K  c #33534E",
"L  c #385A4F",
"P  c #2E5650",
"I  c #335651",
"U  c #3A5652",
"Y  c #355C53",
"T  c #3A5C54",
"R  c #3B5E59",
"E  c #3E6558",
"W  c #3C635C",
"Q  c #454642",
"!  c #474A44",
"~  c #4A4D44",
"^  c #4B4B4A",
"/  c #51524C",
"(  c #55584E",
")  c #445B57",
"_  c #545452",
"`  c #565953",
"'  c #565A55",
"]  c #585953",
"[  c #5C5C5A",
"{  c #446457",
"}  c #42635D",
"|  c #53655F",
" . c #5E615A",
".. c #63645D",
"X. c #436661",
"o. c #456B64",
"O. c #4A6B67",
"+. c #496D65",
"@. c #5B6765",
"#. c #4B7165",
"$. c #497365",
"%. c #4D736C",
"&. c #507266",
"*. c #51736C",
"=. c #53796D",
"-. c #4E7671",
";. c #537671",
":. c #547B75",
">. c #597C74",
",. c #656564",
"<. c #676767",
"1. c #696A65",
"2. c #6B6C69",
"3. c #637064",
"4. c #6E7365",
"5. c #6D726B",
"6. c #717466",
"7. c #72756A",
"8. c #75796D",
"9. c #7C7F6E",
"0. c #627E79",
"q. c #757574",
"w. c #757875",
"e. c #7B7C75",
"r. c #777979",
"t. c #7A797B",
"y. c #558078",
"u. c #5D827C",
"i. c #67847D",
"p. c #768175",
"a. c #7F8276",
"s. c #7E827B",
"d. c #808276",
"f. c #8B8D76",
"g. c #81827D",
"h. c #868A7B",
"j. c #8B8D7C",
"k. c #8C917B",
"l. c #648B83",
"z. c #678B85",
"x. c #7D8785",
"c. c #6B918A",
"v. c #70948E",
"b. c #789A95",
"n. c #7CA29C",
"m. c #848583",
"M. c #858786",
"N. c #8C8D81",
"B. c #8C8C8B",
"V. c #8D9182",
"C. c #869088",
"Z. c #8C948B",
"A. c #929484",
"S. c #92948C",
"D. c #97998A",
"F. c #9A9C8C",
"G. c #949492",
"H. c #979893",
"J. c #9C9E92",
"K. c #9D9E93",
"L. c #9C9E95",
"P. c #9C9C9A",
"I. c #9BA08C",
"U. c #86A49D",
"Y. c #9EA195",
"T. c #9CA49A",
"R. c #9FA99E",
"E. c #A0A294",
"W. c #A2A49B",
"Q. c #A7AA9B",
"!. c #9F9FA1",
"~. c #8AA9A3",
"^. c #93B1AD",
"/. c #A6A6A4",
"(. c #A4AAA3",
"). c #AAABA5",
"_. c #A2ADAA",
"`. c #ADADAB",
"'. c #A5B2AB",
"]. c #ACB2AC",
"[. c #B0B2A7",
"{. c #B1B2A9",
"}. c #AEB1B2",
"|. c #B4B5B2",
" X c #B7B9B6",
".X c #BBBCBA",
"XX c #9FC3BD",
"oX c #A0C2BA",
"OX c #BCC1BC",
"+X c #C3C5BF",
"@X c #BFBEC1",
"#X c #C0BDC1",
"$X c #B4D0CA",
"%X c #C3C3C3",
"&X c #C9CBC6",
"*X c #D0D1CD",
"=X c #CBD5D0",
"-X c #D5D5D2",
";X c #D8DBD6",
":X c #DDDEDC",
">X c #E0DFDF",
",X c #DFE2DA",
"<X c #DDE1DD",
"1X c #E0E1DA",
"2X c #E1E1DD",
"3X c #DFDFE0",
"4X c #E0DFE1",
"5X c #D9E7E4",
"6X c #E4E4E3",
"7X c #E9E9E5",
"8X c #E8E7E9",
"9X c #EAEAEA",
"0X c #EEF6F6",
"qX c #F4F4F3",
"wX c #F8F8F6",
"eX c #FCFCFB",
/* pixels */
"^ ^ ^ ^ ^ N M M N Q Q Q ! ! ~ ^ ^ ^ ^ ^ ^ ^ ^ ^ ^ ^ ~ ~ ~ ~ ~ ~ ^ ^ ^ ^ ^ ^ ^ ~ ^ ^ ^ ^ ~ ~ ~ ^ ^ ^ ~ ~ ~ ! / ~ M M N ^ ^ ^ ^ ^ ",
"%X%X%X%X+X1.l l ~ e.d.d.a.a.a.a.a.a.a.d.d.d.d.d.d.a.a.d.a.a.d.d.d.d.d.d.a.a.a.a.a.a.d.d.d.d.d.d.d.d.d.d.a.g. Xe.c c ,.%X%X%X%X%X",
").).). X2Xw.l l ~ h.N.N.N.V.V.V.V.N.N.N.N.N.N.N.N.N.V.V.V.N.N.N.N.N.N.N.N.N.V.V.N.N.j.j.N.N.N.N.N.N.N.N.j.N.*Xm.c c  ./.).).%X8X",
"h.N.N.Y.:Xw.l l ~ h.N.N.N.N.N.N.N.N.N.N.N.N.N.N.N.N.j.N.N.N.N.N.N.N.N.N.N.N.N.N.N.N.j.j.j.N.N.N.N.j.N.N.j.N.*Xm.M M ( h.j.j.{.9X",
"j.j.j.Y.:Xw.l l ^ S.L.L.L.L.L.L.K.L.L.L.L.L.L.L.L.L.L.K.K.K.K.K.K.K.L.K.L.L.L.L.K.K.K.K.K.K.L.L.L.L.L.K.K.L.-Xm.c c ( j.k.j.[.7X",
"N.N.j.Y.:Xw.l l [ -X,X,X1X1X1X1X1X1X1X1X1X1X1X1X1X1X1X1X1X1X,X,X,X,X1X1X1X1X,X,X,X,X,X1X1X1X1X1X1X2X2X1X1X2X7Xm.c c ` j.f.j.[.7X",
"j.j.j.L.:Xw.l l ~ e.g.g.g.g.g.g.g.g.g.g.g.s.g.g.g.g.g.g.g.g.s.g.g.g.g.g.g.g.g.s.s.s.s.g.g.g.g.g.g.g.g.g.g.g.m.[ c c ` j.k.j.{.7X",
"j.j.j.Y.:Xw.l c c l l l l l l l l l l l l k k k k k k k x k x k x k c c c c l k k j k k c l l l l l l l l c c c c c ] j.f.j.{.7X",
"j.j.j.L.:Xw.k c c c c l l l l c c c c c c k g f f y y r r 0 0 7 7 5 5 5 5 3 3 & & & & & = - * * * * * * @ - u @ u c ] j.f.j.{.7X",
"j.j.j.L.:Xw.c  .1.1.1.,.1./ l ] 1.1.1.,.1.' m H Y P J B B r 1 , 6 4 4 2 + + + o o o o o o o o o o o o o o o o o @ c ' j.f.j.[.7X",
"j.j.j.L.:Xw.M OX2X<X2X:X:XB.c /.6X2X:X>X2X_.m &.~.b.c.u.-.W 0 0 C n d a 7 3 + o o o o o o o o o o o o o o o o o O c ` j.f.f.{.7X",
"j.j.j.L.:Xw.M OX&X;X7X7X7XB.c /.*X-X7X7X7X].m *.U.v.v.i.;.X.0 0 C h d d 7 3 + o o o o o o o o o o o o o o o o o @ c ` j.f.f.{.7X",
"j.j.j.L.:Xw.Q ).S..X7X-X6XB.c P.H./.6X-X2X].m *.z.*.z.u.%.} 0 0 n e d d 7 3 +   o o o o o o o o o o o o o o o o @ c ` j.f.f.{.7X",
"j.j.j.Y.:Xw.k ,._ g.*X).-XB.c L.S.L.:X{.&X].m &.i.+.l.;.} W 9 6 h q e a 7 3 + o o o o o o o o o o o o o o o o o @ x ` j.f.f.{.7X",
"j.j.j.Y.<X5.j  .2.' [ m.&XB.c L.S.Y.<X/.|.].m #.i.+.l.%.R W 6 6 h q e 7 3 3 + o   o o o o o o o o o o o o o o o @ x ` j.f.f.{.7X",
"j.j.j.Y.-X_ w..X&X).' ` +XB.c H.S.T.:XW.].].m #.u.+.l.%.Y W 6 6 h q e 7 4 2 +     o o o o o o o o o o o o o o o @ x ` j.f.f.{.7X",
"j.j.j.Y.|.^ `.qXeX6Xm.l 2._ j [ ` ] q.[ ,.@.f H K Z I Z v n 1 , 6 4 4 2 2 2 + o o o o o o o o o o o o o o o o o @ c ` j.f.f.{.7X",
"j.j.j.E.`.^ .XeXeXqXS.c g.M.M.m.m.m.x.m.m.x.i.>.%.o.W Y J A n h e q 7 2 2 2 + o o o o o o o o o o o o o o o o o @ c ` j.f.f.{.9X",
"j.j.j.Y.`.^ `.qXeX2Xm.' :X9X9X9X9X9X9X9X9X5X=X$X^.~.b.z.>.%.X.U F m d 7 4 2 + o o o o o o o o o o o o o o o o o @ c ] j.f.f.{.9X",
"j.j.j.Y.`.^ G..X9X`.g.] ;X6X6X6X6X6X6X6X6X:X$XoX^.n.v.l.:.O.) U A m d 7 4 2 + o   o o o o o o o o o o o o o o o @ c ] j.f.f.{.9X",
"j.j.j.Y.`.^ S.`.7X!.m.N g.m.m.m.M.M.M.m.m.x.i.>.%.o.W I J A V y e 0 4 4 4 4 + o   o o o o o o o o o o o o o o o @ c ] j.f.f.{.7X",
"j.j.j.Y.`.^ G.).;XP.m.c ,.,.,.,.,.,.<.<.<.@.| } T I D Z b y t 0 6 6 4 4 4 2 + o o o o o o o o o o o o o o o o o @ c ] j.f.f.{.7X",
"j.j.j.Y.`.^ B.,.,.q.m./  X%X%X%X%X%X%X%X%XOX'.~.b.c.u.-.o.R K A n h d 4 2 2 + o o o o o o o o o o o o o o o o o @ c ` j.f.f.{.7X",
"j.j.j.Y.`._ G.[ ^ q.G.c _ ' [ [ [ [ [ [ ' ' ) K J S B B v r w 0 6 4 4 $ 2 2 + o o o o o o o o o o o o o o o o o @ c ] j.f.f.{.7X",
"j.j.j.E.`.c ).`.P..Xm.* O O @ @ @ @ @ @ O % $ # > > > > ; ; ; # # . . X 2 2 + o o o o o o o o o o o o o o o o o @ c ] j.f.f.{.7X",
"j.j.j.E.|.p / /..XB.j p ..^ p ! / ]  ./ ] | e n S Z S v t t , : , , 4 4 2 2 + o o o o o o o o o o o o o o o o o @ c ] j.f.f.{.7X",
"j.j.j.Y.*X~ @ u s u @ / {.N.c 8.N.Y.Q.f.Y.'.C E :.#.=.Y I R w 1 e q q 7 4 2 + o o o o o o o o o o o o o o o o o @ c ] j.f.f.{.7X",
"j.j.j.K.:X2.* @ @ * N a.{.B.c 7.j.I.Q.f.Y._.C T =.#.%.Y J R 0 1 y q q 5 4 2 + o o o o o o o o o o o o o o o o o @ c ] j.f.f.{.7X",
"j.j.j.L.:Xw.j / / q.N.h.[.B.l 4.j.F.E.f.K._.C T =.#.%.Y J Y 0 , e q q 4 4 2 + o o o o o o o o o o o o o o o o o @ c ] j.f.f.{.7X",
"j.j.j.L.:Xw.M a.N.W.S.j.).B.c 6.k.F.F.f.K.(.C T =.#.#.Y J T 0 , e q q 5 4 2 + o o o o o o o o o o o o o o o o o @ c ] j.f.f.{.7X",
"j.j.j.K.:Xw.M e.N.Y.A.j.).B.c 4.k.D.D.h.K.(.m T =.#.#.Y S Z , : 6 6 7 5 4 2 + o   o o o o o o o o o o o o o o o @ c ] j.f.f.{.9X",
"j.j.j.K.:Xr.M 9.j.D.k.j.).B.l 4.j.A.A.j.F.(.m T =.+.E v 9 1 1 , $ $ 4 4 4 2 +     o o o o o o o o o o o o o o o @ c ] j.f.f.{.7X",
"j.j.j.K.:Xr.c 9.j.A.j.f.).B.c 6.j.A.V.j.D.R.m T =.E r 9 b J U A f 4 $ X 2 2 +   o o o o o o o o o o o o o o o o @ c ] j.f.f.{.7X",
"j.j.j.K.:Xr.c 9.j.j.j.j.).B.l 6.j.k.N.j.D.R.C T +.r r Z R *.O.) G d 4 $ X % +   o o o o o o o o o o o o o o o o @ c ] j.f.j.[.7X",
"j.j.j.L.3Xt.M 9.j.j.j.j.Q.B.l 6.j.j.N.j.D.R.C T K 0 K W +.;.O.) K h 7 4 + + +   o o o o o o o o o o o o o o o o @ c ] j.f.j.[.7X",
"j.j.j.L.4Xt.M 9.j.j.j.j.Q.B.l 6.k.j.N.j.A.T.F D r Z ;.W X.;.O.) K f 7 7 2 X +   o o o o o o o o o o o o o o o o @ c ] j.f.j.{.7X",
"j.j.j.K.>Xt.M 9.j.j.j.j.W.M.l 6.k.j.N.j.A.T.C 9 9 W l.W R R R U m e 7 7 2 X +   o o o o o o o o o o o o o o o o @ c ] j.f.j.{.7X",
"j.j.j.K.2Xt.M 9.j.j.j.j.E.m.c 6.k.j.V.j.A.T.e < r %.u.R %.o.D n y q 7 7 4 X X   o o o o o o o o o o o o o o o o @ c ] j.f.j.{.7X",
"j.j.j.K.2Xt.M 9.j.j.j.j.E.m.c 6.k.j.N.j.A.Z.4 < r %.u.J :.*.K n y q 4 7 3 X     o o o o o o o o o o o o o o o o @ c ] j.f.j.{.7X",
"j.j.j.K.>Xt.M 9.j.j.j.j.E.M.c 6.k.j.N.j.j.` $ < 9 W c.P Z D n y 0 4 4 7 2 X   o o o o o o o o o o o o o o o o o @ c ] j.f.j.{.7X",
"j.j.j.L.4Xt.M 9.j.j.j.j.E.M.c 6.k.j.j.j.a.a : < 8 B :.:.Z w 6 6 , 6 e 7 + X X o o o o o o o o o o o o o o o o o @ c ] j.f.f.{.7X",
"j.j.j.L.4Xt.M 9.j.j.j.j.Y.m.c 6.k.j.j.j.6.5 , 1 < 9 B o.%.Y A h h h e 2 X + +   o o o o o o o o o o o o o o o o @ c ] j.f.f.{.9X",
"j.j.j.K.>Xt.M 9.j.j.j.j.K.g.l 4.k.j.j.j.4.5 , 1 < < 9 t Z D A V y 6 4 X X + + o o o o o o o o o o o o o o o o o @ c ] j.f.f.{.9X",
"j.j.j.K.2Xt.M 9.j.j.j.j.F.g.l 6.k.j.j.N.4.5 , 1 < < < 8 9 w 9 1 : : $ X + % + o o o o o o o o o o o o o o o o o @ c ] j.f.f.{.7X",
"j.j.j.K.2Xt.M 9.j.j.j.j.D.d.l 6.j.j.j.j.a.g : 1 < 8 < > > < < , : $ : 4 2 2 + o o o o o o o o o o o o o o o o o @ c ] j.f.f.{.7X",
"j.j.j.K.4Xt.M 9.j.j.j.j.D.d.c 7.j.j.j.j.V.5.4 1 < 8 < > > > > , 0 q 4 4 2 2 +   o o o o o o o o o o o o o o o o @ c ] j.f.j.[.7X",
"j.j.j.L.4Xt.M 9.j.N.N.N.D.g.c 7.j.j.j.j.V.Z.h 9 8 8 8 < 9 v 9 , e q 4 4 2 2 +   o o o o o o o o o o o o o o o o @ c ] j.f.j.{.7X",
"j.j.j.L.4Xt.c 1.6.a.N.N.S.s.c 7.j.j.j.j.V.Z.m K W P J J H J 0 , e q 4 3 2 % +   o o o o o o o o o o o o o o o o @ c ] j.f.j.{.7X",
"j.j.j.K.2Xw.p Q / N ..N.S.e.c 4.k.j.j.j.V.C.m L =.#.E Y J H 0 , e q 4 5 2 % +   o o o o o o o o o o o o o o o o @ c ] j.f.j.{.7X",
"j.j.j.F.;X[ [ P.`.Z.~ ,.G.s.c 4.k.j.N.N.V.C.m L =.o.E Y P H 0 , e q 4 3 2 % + o o o o o o o o o o o o o o o o o @ c ] j.f.j.{.7X",
"j.j.j.Y..X! P.6XwX-Xe.! m.5.k ..a.a.a.a.g.r.m K +.E Y J H Z 1 , 0 0 4 3 3 % + o   o o o o o o o o o o o o o o o @ c ] j.f.j.{.7X",
"j.j.j.E.`.^ .XeXeXqXB.j _ _ ^ / ( ( _ ` ] _ G F J Z b y y r 0 6 6 , 2 2 2 2 + o   o o o o o o o o o o o o o o o @ c ] j.f.f.{.7X",
"j.j.j.E.`.^ |.eXeX9XB./ ).|.|. X|.|.|. X|.}.^.U.v.l.:.O.} T K A n f e 3 2 2 + o o o o o o o o o o o o o o o o o @ c ] j.f.f.{.9X",
"j.j.j.E.`.^ P.-XqX.XB.w.9XeXwXqXwXeXeXeXeX0X5X$XXX^.n.c.u.*.X.T G C g 3 2 2 + o o o o o o o o o o o o o o o o o @ c ] j.f.f.{.9X",
"j.j.j.E.`.^ G.{.:X`.B._ {..X.X%X.X@X@X#X@X X_.U.b.l.y.%.X.T K A m f d 3 2 2 + o o o o o o o o o o o o o o o o o @ c ] j.f.f.{.7X",
"j.j.j.E.`.^ G.`.6X`.m.^ e.t.q.q.r.<.,.,.,.@.O.} T P H Z b b t 0 6 4 4 3 2 = + o o o o o o o o o o o o o o o o o @ c ] j.f.f.{.7X",
"j.j.j.E.`.^ S.g./.B.m.[ B.Z.P.S.H.B.B.B.B.x.i.0.;.o.W Y J D V h e e 7 3 2 2 + o o o o o o o o o o o o o o o o o @ c ] j.f.f.{.7X",
"j.j.j.E.`._ B.^ ,.q.B.[ /.`.{.|.|.|.`.}.}._.~.b.z.u.-.+.W I D C h d q 2 = = + o o o o o o o o o o o o o o o o o @ c ] j.f.j.{.7X",
"j.j.j.E.`.^ `.m.e./.G.N N l M Q N p p i i 7 q 6 9 9 9 9 < > ; # # . X X + = +     o o o o o o o o o o o o o o o @ c ] j.f.j.[.7X",
"h.j.j.Y.{.p t.&X&X%X..p s j N j j u u * * 5 4 , 9 9 9 < < > ; ; ; . X X + 2 +     o o o o o o o o o o o o o o o @ c ] j.f.j.[.7X",
"f.V.A.W.%Xz u ^ [ ~ N [ h.7.N  .8.7.8.7.6.3.f A o.W I H Z b 1 1 0 6 4 4 2 % +     o o o o o o o o o o o o o o o @ c ] j.f.j.{.7X",
"h.A.j.W.;X,.@ O @ @ p 8.V.4.M 4.k.V.N.j.j.p.m T =.+.W Y I Z 9 1 e 0 4 4 % % +   o o o o o o o o o o o o o o o o @ l ] h.j.j.{.7X",
"j.A.h.W.:Xm.N Q c N 5.V.S.1.l 4.V.j.A.A.A.p.F { u.=.o.Y J V 9 1 h m h g d 2 +   o o o o o o o o o o o o o o o o @ l ` j.j.h.].6X",
"h.V.h.L.;Xe.Q e.B.N.N.S.S.7.l 5.V.S.V.N.V.s.) { >.%.%.W P V 9 6 F F d a d x 3 o o o o o o o o o o o o o o o o o @ l ] N.N.j.].7X"
};
