/* XPM */
static char *_77e8c97582f49e58abbf093c258b768FbEYJlW6x1yXy2qT[] = {
/* columns rows colors chars-per-pixel */
"64 64 147 2 ",
"   c #5E503E",
".  c #60523F",
"X  c #5F5240",
"o  c #615441",
"O  c #665844",
"+  c #685A46",
"@  c #6D5E49",
"#  c #6F604B",
"$  c #71624D",
"%  c #6D6150",
"&  c #726554",
"*  c #766853",
"=  c #786952",
"-  c #766A59",
";  c #7A6D5C",
":  c #7F7057",
">  c #7F715B",
",  c #7D7161",
"<  c #83745C",
"1  c #8A795E",
"2  c #837664",
"3  c #867964",
"4  c #8A7C64",
"5  c #867A6A",
"6  c #8A7D6B",
"7  c #907F63",
"8  c #8E8067",
"9  c #8D806C",
"0  c #938266",
"q  c #93856C",
"w  c #988669",
"e  c #9D8B6C",
"r  c #8D8271",
"t  c #938671",
"y  c #958873",
"u  c #9A8C74",
"i  c #978C79",
"p  c #9B8E79",
"a  c #A18E6E",
"s  c #A3906F",
"d  c #A28F70",
"f  c #A59272",
"g  c #A49273",
"h  c #A59273",
"j  c #A69272",
"k  c #A69372",
"l  c #A69373",
"z  c #A79373",
"x  c #A49172",
"c  c #A79473",
"v  c #A29176",
"b  c #A39277",
"n  c #A49375",
"m  c #A69274",
"M  c #A69374",
"N  c #A69375",
"B  c #A79474",
"V  c #A79475",
"C  c #A79575",
"Z  c #A79477",
"A  c #A79577",
"S  c #A49272",
"D  c #A89573",
"F  c #A89474",
"G  c #A89475",
"H  c #A89575",
"J  c #A99575",
"K  c #A99675",
"L  c #AA9675",
"P  c #A89576",
"I  c #A99576",
"U  c #A99676",
"Y  c #AA9676",
"T  c #AA9776",
"R  c #AB9776",
"E  c #AA9677",
"W  c #AA9777",
"Q  c #AB9777",
"!  c #A99676",
"~  c #AB9877",
"^  c #AD9977",
"/  c #AC9877",
"(  c #A3957C",
")  c #A4957D",
"_  c #A5967C",
"`  c #A6977C",
"'  c #A6977D",
"]  c #A7977D",
"[  c #A6977E",
"{  c #A4967D",
"}  c #A89678",
"|  c #A99678",
" . c #AA9778",
".. c #A99778",
"X. c #AB9878",
"o. c #AB9979",
"O. c #AB997B",
"+. c #AC9878",
"@. c #AC9978",
"#. c #AD9978",
"$. c #AC9979",
"%. c #AD9A78",
"&. c #AD9A79",
"*. c #AE9A79",
"=. c #AD9A7A",
"-. c #AE9A7A",
";. c #AB997C",
":. c #AB9A7D",
">. c #AB9A7E",
",. c #AC9A7C",
"<. c #AC9A7D",
"1. c #AC9A7E",
"2. c #AD9C7E",
"3. c #AE9D7E",
"4. c #AF9E7F",
"5. c #AC9A7A",
"6. c #B09D7C",
"7. c #B29E7D",
"8. c #B09E7F",
"9. c #B19D7C",
"0. c #A19681",
"q. c #A29783",
"w. c #A39783",
"e. c #A59A85",
"r. c #A99B83",
"t. c #AF9E81",
"y. c #A99C84",
"u. c #B09E80",
"i. c #B09F80",
"p. c #B19F81",
"a. c #B09F80",
"s. c #B3A183",
"d. c #B4A486",
"f. c #B4A487",
"g. c #B5A487",
"h. c #B3A283",
"j. c #B3A489",
"k. c #B5A588",
"l. c #B1A58F",
"z. c #B2A68E",
"x. c #B6A68A",
"c. c #B8A789",
"v. c #B8A88A",
"b. c #B3A790",
"n. c #B5A993",
"m. c #B8AA90",
"M. c #BBAD92",
/* pixels */
"i t * y y i 2 2 q 9 9 9 t y i 3 ; i y i ; 6 q 9 9 q y y i - 6 i i 9 ; q 9 9 9 t i i t * i y i 2 2 q 9 9 9 t y i 2 > i y i - 6 q ",
"t.z.4 4.<.d.u w +.W W W <.<.d.q.q s.<.j.6 f X.W W W 4.X.m.t m i.i.r.4 +.W W W X.4.4.z.4 7.<.d.u w +.W W W <.<.x.q.q s.<.j.4 c } ",
"a ` 4 a e W q 0 a d f f f e f u 4 s a C 4 e e f f f d e >.9 e a f u 4 x e f f f a a ` 4 a e W q 0 a d f f f e C u 7 s a C 4 a e ",
"f ` 4 f e W i 0 W f f a f f W u 0 f e >.6 a m f x a m f X.9 e x f ( 4 W f f a x m f ` 4 f e } y 0 W f f a f f W u 0 f e >.6 a m ",
"f ` 4 C d W y 1 W f a f f x W u 7 W a <.3 e W x a m x d <.9 e m f ( < f f a x f d f ` 4 W d } t 4 W f a f f x W u 0 W a >.3 e C ",
"f b 4 f e C y 1 W x f x f x W y 0 f e >.3 w m f f f x x } 4 e x a ` > f f f x f x f b 4 f e W t 1 W x f x f x W q 0 f e >.2 e m ",
"W } 3 c W 7.y 4 7.W f W +.~ ^ u 4 +.W i.3 a +.W f X.+.W +.4 e +.+.` < +.X.f f +.X.W C 3 D W 7.t 7 7.W f W +.W +.u 4 +.W i.3 a +.",
"$ # X @ # $ o O $ $ @ # @ $ $ + o $ # @   @ $ $ @ # @ $ $ o + $ $ + o # $ # # @ # $ @ o @ # $ o O $ $ @ # @ $ $ + o $ # @   @ $ ",
"@ 6 r 9 6 6 r r 5 % 9 6 r ; ; 6 4 3 3 6 r r ; - r 6 r & 3 6 4 3 3 9 r r % 2 r r 2 & 6 4 3 3 6 r r 5 % 9 6 r - ; 6 4 3 3 6 r r , ",
"4 7.j.s.4.i.4.s.n.8 s.4.x.u e 7.X.+.+.4.4.v.q.e d.4.x.9 W +.+.+.+.i.<.M.t } s.s.y.0 6.X.+.+.<.4.s.b.9 h.4.c.u e 6.X.+.+.4.4.x.e.",
"< m a x f e a f ` 4 a e W q 0 a d f f x e C u 7 a a C 4 e e f f f a e >.6 e e f u 4 s e f f f e a ` 4 a e W 9 q a d f f x e m p ",
"< C m e f f f f y.4 f e } y 0 W f f a f f W u 0 f e >.6 a m f x a m f >.6 e d f ( 4 W f f a x m f ` 4 f e X.t q W f f a f f W p ",
"1 f a f f m f f y.4 W d } t 4 W f a f f d W u 0 W a >.3 e C x a m x d >.6 e m f ( < C f a x f x f ` 4 W d X.q 4 W f a f f x W p ",
"< C d f x e f f ` 4 f e W t 1 W x f x f x W q 0 f e >.2 e m f f f x x } 4 e d a ( < f x f x f x f b 4 f e W t 1 W x f f f x C u ",
"< W W X.+.W ~ ^ >.< W W 7.q 0 6.W f W +.W +.e 4 +.W i.3 s +.W f +.X.W +.4 e +.+.` < +.X.f c +.X.W C 3 W W 7.q 0 6.W f W +.W ^ u ",
". + $ @ @ @ $ $ @   # # $ o O $ $ @ # @ $ $ + o $ # @   @ $ # @ @ # $ $ o + $ $ O o $ $ @ # @ $ $ @ o # # $ o O $ $ @ # @ $ $ + ",
"r 6 % 6 6 r ; ; 6 6 3 3 6 r r ; * r 6 r & 2 4 6 3 3 6 r r & 2 r 9 5 & 6 4 4 3 6 r r 5 % 6 6 r ; ; 6 4 3 3 6 r r ; * r 6 r & 3 4 ",
"7.n.9 s.4.x.p e 7.X.+.+.4.4.x.e.q d.4.x.9 W +.+.+.+.i.<.M.y C s.s.y.4 6.X.+.+.+.i.i.n.9 s.4.x.u e 7.X.+.+.4.4.c.w.e d.4.x.9 W +.",
"a ` 4 a e W q 0 a d f f x e f u 4 a a C 4 e e f f f d e >.9 e e f u 4 s e f f f e a ` 4 a e W q 0 a d f f x e C u 7 a a C 4 e e ",
"f ` 4 f e W i 0 W f f a f f W u 0 f e >.6 a m f x a m f X.9 e x f ( 4 W f f a x m f ` 4 f e } y 0 W f f a f f W u 0 f e >.6 a m ",
"f ` 4 C d W y 1 W f a f f x W u 7 W a <.3 e W x a m x d <.9 e m f ( < f f a x f x f ` 4 W d } t 4 W f a f f x W u 0 W a >.3 e C ",
"f b 4 f e C y 1 W x f x f x W y 0 f e >.3 w m f f f x x } 4 e x a ` > f f f x f x f b 4 f e W t 1 W x f x f x W q 0 f e >.2 e m ",
"W } 3 c W 7.y 4 7.W f W +.~ ^ u 4 +.W i.3 a +.W f X.+.W +.4 e +.+.` < +.X.f f +.X.W C 3 D W 7.t 7 7.W f W +.W +.u 4 +.W i.3 a +.",
"$ # X @ # $ o O $ $ @ # @ $ $ + o $ # @   @ $ $ @ # @ $ $ o + $ $ + o # $ # # @ # $ @ o @ # $ o O $ $ @ # @ $ $ + o $ # @   @ $ ",
"@ 6 r 9 6 6 r r 5 % 9 6 r ; ; 6 4 3 3 6 r r ; - r 6 r & 3 6 4 3 3 9 r r % 2 r r 2 & 6 4 3 3 6 r r 5 % 9 6 r - ; 6 4 3 3 6 r r , ",
"4 7.j.s.4.i.4.s.n.8 s.4.x.u e 7.X.+.+.4.4.v.q.e d.4.x.9 W +.+.+.+.i.<.M.t } s.s.y.0 6.X.+.+.<.4.s.b.9 h.4.c.u e 6.X.+.+.4.4.x.e.",
"< m a x f e a f ` 4 a e W q 0 a d f f x e C u 7 a a C 4 e e f f f a e >.6 e e f u 4 s e f f f e a ` 4 a e W 9 q a d f f x e m p ",
"< C m e f f f f y.4 f e } y 0 W f f a f f W u 0 f e >.6 a m f x a m f >.6 e d f ( 4 W f f a x m f ` 4 f e X.t q W f f a f f W p ",
"1 f a f f m f f y.4 W d } t 4 W f a f f d W u 0 W a >.3 e C x a m x d >.6 e m f ( < C f a x f x f ` 4 W d X.q 4 W f a f f x W p ",
"< C d f x e f f ` 4 f e W t 1 W x f x f x W q 0 f e >.2 e m f f f x x } 4 e d a ( < f x f x f x f b 4 f e W t 1 W x f f f x C u ",
"< W W X.+.W ~ ^ >.< W W 7.q 0 6.W f W +.W +.e 4 +.W i.3 s +.W f +.X.W +.4 e +.+.` < +.X.f c +.~ W C 3 W W 7.q 0 6.W f W +.W ^ u ",
". + $ @ @ @ $ $ @   # # $ o O $ $ @ # @ $ $ + o $ # @   @ $ # @ @ # $ $ o + $ $ O o $ $ @ # @ $ $ @ o # # $ o O $ $ @ # @ $ $ + ",
"r 6 % 6 6 r ; ; 6 6 3 3 6 r r ; * r 6 r & 2 4 6 3 3 6 r r & 2 r 9 5 & 6 4 4 3 6 r r 5 % 6 6 r ; ; 6 4 3 3 6 r r ; * r 6 r & 3 4 ",
"7.n.9 s.4.x.p e 7.X.+.+.4.4.x.e.q d.4.x.9 W +.+.+.+.i.<.M.y C s.s.y.4 6.X.+.+.+.i.i.n.9 s.4.x.u e 7.X.+.+.4.4.c.w.e d.4.x.9 W +.",
"a ` 4 a e W q 0 a d f f x e f u 4 a a C 4 e e f f f d e >.9 e e f u 4 s e f f f e a ` 4 a e W q 0 a d f f x e C u 7 a a C 4 e e ",
"f ` 4 f e W i 0 W f f a f f W u 0 f e >.6 a m f x a m f X.9 e x f ( 4 W f f a x m f ` 4 f e } y 0 W f f a f f W u 0 f e >.6 a m ",
"f ` 4 C d W y 1 W f a f f x W u 7 W a <.3 e W x a m x d <.9 e m f ( < f f a x f x f ` 4 W d } t 4 W f a f f x W u 0 W a >.3 e C ",
"f b 4 f e C y 1 W x f x f x W y 0 f e >.3 w m f f f x x } 4 e x a ` > f f f x f x f b 4 f e W t 1 W x f x f x W q 0 f e >.2 e m ",
"W } 3 c W 7.y 4 7.W f W +.~ ^ u 4 +.W i.3 a +.W f X.+.W +.4 e +.+.` < +.X.f f +.X.W C 3 D W 7.t 7 7.W f W +.W +.u 4 +.W i.3 a +.",
"$ # X @ # $ o O $ $ @ # @ $ $ + o $ # @   @ $ $ @ # @ $ $ o + $ $ + o # $ # # @ # $ @ o @ # $ o O $ $ @ # @ $ $ + o $ # @   @ $ ",
"@ 6 r 9 6 6 r r 5 % 9 6 r ; ; 6 4 3 3 6 r r ; - r 6 r & 3 6 4 3 3 9 r r % 2 r r 2 & 6 4 3 3 6 r r 5 % 9 6 r - ; 6 4 3 3 6 r r , ",
"4 7.j.s.4.i.4.s.n.8 s.4.x.u e 7.X.+.+.4.4.v.q.e d.4.x.9 W +.+.+.+.i.<.M.t } s.s.y.0 6.X.+.+.<.4.s.b.9 h.4.c.u e 6.X.+.+.4.4.x.e.",
"< m a x f e a f ` 4 a e W q 0 a d f f x e C u 7 a a C 4 e e f f f a e >.6 e e f u 4 s e f f f e a ` 4 a e W 9 q a d f f x e m p ",
"< C m e f f f f y.4 f e } y 0 W f f a f f W u 0 f e >.6 a m f x a m f >.6 e d f ( 4 W f f a x m f ` 4 f e X.t q W f f a f f W p ",
"1 f a f f m f f y.4 W d } t 4 W f a f f d W u 0 W a >.3 e C x a m x d >.6 e m f ( < C f a x f x f ` 4 W d X.q 4 W f a f f x W p ",
"< C d f x e f f ` 4 f e W t 1 W x f x f x W q 0 f e >.2 e m f f f x x } 4 e d a ( < f x f x f x f b 4 f e W t 1 W x f f f x C u ",
"< W W X.+.W ~ ^ >.< W W 7.q 0 6.W f W +.W +.e 4 +.W i.3 s +.W f +.X.W +.4 e +.+.` < +.X.f c +.X.W C 3 W W 7.q 0 6.W f W +.W ^ u ",
". + $ @ @ @ $ $ @   # # $ o O $ $ @ # @ $ $ + o $ # @   @ $ # @ @ # $ $ o + $ $ O o $ $ @ # @ $ $ @ o # # $ o O $ $ @ # @ $ $ + ",
"r 6 % 6 6 r ; ; 6 6 3 3 6 r r ; * r 6 r & 2 4 6 3 3 6 r r & 2 r 9 5 & 6 4 4 3 6 r r 5 % 6 6 r ; ; 6 4 3 3 6 r r ; * r 6 r & 3 4 ",
"7.n.9 s.4.x.p e 7.X.+.+.4.4.x.e.q d.4.x.9 W +.+.+.+.i.<.M.y C s.s.y.4 6.X.+.+.+.i.i.n.9 s.4.x.u e 7.X.+.+.4.4.c.w.e d.4.x.9 W +.",
"a ` 4 a e W q 0 a d f f x e f u 4 a a C 4 e e f f f d e >.9 e e f u 4 s e f f f e a ` 4 a e W q 0 a d f f x e C u 7 a a C 4 e e ",
"f ` 4 f e W i 0 W f f a f f W u 0 f e >.6 a m f x a m f X.9 e x f ( 4 W f f a x m f ` 4 f e } y 0 W f f a f f W u 0 f e >.6 a m ",
"f ` 4 C d W y 1 W f a f f x W u 7 W a <.3 e W x a m x d <.9 e m f ( < f f a x f x f ` 4 W d } t 4 W f a f f x W u 0 W a >.3 e C ",
"f b 4 f e C y 1 W x f x f x W y 0 f e >.3 w m f f f x x } 4 e x a ` > f f f x f x f b 4 f e W t 1 W x f x f x W q 0 f e >.2 e m ",
"W } 3 c W 7.y 4 7.W f W +.~ ^ u 4 +.W i.3 a +.W f X.+.W +.4 e +.+.` < +.X.f f +.X.W C 3 D W 7.t 7 7.W f W +.W +.u 4 +.W i.3 a +.",
"$ # X @ # $ o O $ $ @ # @ $ $ + o $ # @   @ $ $ @ # @ $ $ o + $ $ + o # $ # # @ # $ @ o @ # $ o O $ $ @ # @ $ $ + o $ # @   @ $ ",
"@ 6 r 9 6 6 r r 5 % 9 6 r ; ; 6 4 3 3 6 r r ; - r 6 r & 3 6 4 3 3 9 r r % 2 r r 2 & 6 4 3 3 6 r r 5 % 9 6 r - ; 6 4 3 3 6 9 r , ",
"4 7.j.s.4.i.4.s.n.8 s.4.x.u e 7.X.+.+.4.4.v.q.e d.4.x.9 W +.+.+.+.i.<.M.t } s.s.y.0 6.X.+.+.<.4.s.b.9 h.4.c.u e 6.X.+.+.4.4.x.e.",
"< m a x f e a f ` 4 a e W q 0 a d f f x e C u 7 a a C 4 e e f f f a e >.6 e e f u 4 s e f f f e a ` 4 a e W 9 q a d f f x e m p ",
"< C m e f f f f y.4 f e } y 0 W f f a f f W u 0 f e >.6 a m f x a m f >.6 e d f ( 4 W f f a x m f ` 4 f e X.t q W f f a f f W p ",
"1 f a f f m f f y.4 W d } t 4 W f a f f d W u 0 W a >.3 e C x a m x d >.6 e m f ( < C f a x f x f ` 4 W d X.q 4 W f a f f x W p ",
"< W x f f e f f ` 4 f e W t 1 W f f f f x W q 0 f e >.2 e m f f f f x } 4 e x a ( < f f f f f x f b 4 f e W t 1 W f f f f x W u ",
": f W W W f W W ` < f C +.q 4 +.W a f W W W q 4 W c 4.< e X.f a W W W ~ 4 e W W ( < W W x x W W W b < f C 4.9 4 +.W a c W W W u ",
"+ $ * = = = = = $ O * = = @ $ = * = = = = = $ @ = = * O * = * = = = = = @ $ = = $ @ = = * = = = = * + * = = @ $ = * = = = = = $ "
};
