/* XPM */
static char *_c8a5a27160c48f2d489df33dbd917f3yV28HjwxkBeMvHWN[] = {
/* columns rows colors chars-per-pixel */
"71 71 241 2 ",
"   c #FF00FF",
".  c #1D0C05",
"X  c #1C0C0A",
"o  c #170708",
"O  c #1B160B",
"+  c #1C0D14",
"@  c #1C0C1B",
"#  c #180713",
"$  c #1D1314",
"%  c #1D1C15",
"&  c #1D131B",
"*  c #1E1D1A",
"=  c #141217",
"-  c #0C060E",
";  c #240C05",
":  c #250D09",
">  c #280804",
",  c #231203",
"<  c #24130C",
"1  c #241B0D",
"2  c #2A1508",
"3  c #230C13",
"4  c #260B18",
"5  c #231514",
"6  c #2A1413",
"7  c #231C14",
"8  c #2A1B13",
"9  c #231419",
"0  c #241C1A",
"q  c #2B1C1B",
"w  c #2C141A",
"e  c #321913",
"r  c #1B2116",
"t  c #18210C",
"y  c #2A2316",
"u  c #24221B",
"i  c #29241A",
"p  c #332918",
"a  c #273519",
"s  c #3B3A15",
"d  c #3C3A1A",
"f  c #343814",
"g  c #313708",
"h  c #1A1625",
"j  c #271A22",
"k  c #291322",
"l  c #1D2427",
"z  c #1C2735",
"x  c #1C323A",
"c  c #163027",
"v  c #262626",
"b  c #36272C",
"n  c #2F332E",
"m  c #413814",
"M  c #413925",
"N  c #33431A",
"B  c #26742C",
"V  c #2D6428",
"C  c #495719",
"Z  c #4F5419",
"A  c #587116",
"S  c #647517",
"D  c #535D23",
"F  c #1D3341",
"G  c #1B3949",
"H  c #192E4C",
"J  c #194559",
"K  c #26595A",
"L  c #314E44",
"P  c #184663",
"I  c #164C6A",
"U  c #16546B",
"Y  c #175576",
"T  c #0E5173",
"R  c #25526D",
"E  c #4E6D57",
"W  c #4B5D6D",
"Q  c #734D77",
"!  c #536B79",
"~  c #B01738",
"^  c #DC030D",
"/  c #D7080B",
"(  c #DB0617",
")  c #CE0F1D",
"_  c #EA0304",
"`  c #EC010D",
"'  c #E6040C",
"]  c #F40104",
"[  c #FB0202",
"{  c #F5020B",
"}  c #FA0209",
"|  c #E50114",
" . c #E90213",
".. c #E4001A",
"X. c #E60518",
"o. c #F60013",
"O. c #D70724",
"+. c #D51223",
"@. c #E50327",
"#. c #AE284C",
"$. c #9C2955",
"%. c #89406B",
"&. c #23952F",
"*. c #1AAE36",
"=. c #28B339",
"-. c #26A938",
";. c #1C8131",
":. c #6C8919",
">. c #759C2C",
",. c #7DBA17",
"<. c #28AB46",
"1. c #89BD1B",
"2. c #95BD1D",
"3. c #8EBA24",
"4. c #868F0E",
"5. c #97C91E",
"6. c #92CC1C",
"7. c #A0D01C",
"8. c #8CC724",
"9. c #95C923",
"0. c #95D327",
"q. c #125F88",
"w. c #13648C",
"e. c #0B6B99",
"r. c #126895",
"t. c #0A79AA",
"y. c #0A7DB5",
"u. c #0C7EBB",
"i. c #037FB2",
"p. c #107DB2",
"a. c #3879B7",
"s. c #3F78AF",
"d. c #5D5D8F",
"f. c #665A8A",
"g. c #70558D",
"h. c #596389",
"j. c #5C6190",
"k. c #61618B",
"l. c #4774AB",
"z. c #077EC6",
"x. c #2E7FC0",
"c. c #0484BD",
"v. c #0B81BB",
"b. c #0785B5",
"n. c #1282B8",
"m. c #0A84AF",
"M. c #2D83B8",
"N. c #5E859B",
"B. c #5193AF",
"V. c #638AA1",
"C. c #6F95A9",
"Z. c #0688C3",
"A. c #0495DC",
"S. c #019CDD",
"D. c #0A9AD9",
"F. c #108ED1",
"G. c #2C80C4",
"H. c #208DCE",
"J. c #388BC1",
"K. c #01A3DC",
"L. c #04A3DA",
"P. c #16ABDE",
"I. c #0295E3",
"U. c #029DE4",
"Y. c #0A9CE5",
"T. c #029EEA",
"R. c #0A9DEC",
"E. c #0895E8",
"W. c #139BE7",
"Q. c #039DF2",
"!. c #0B9CF2",
"~. c #069DFB",
"^. c #028FEB",
"/. c #02A2E5",
"(. c #09A3E5",
"). c #02A2EB",
"_. c #0AA2EC",
"`. c #00A9ED",
"'. c #06A8E9",
"]. c #13A5EB",
"[. c #16A8E9",
"{. c #02A4F3",
"}. c #0BA4F3",
"|. c #01A9F3",
" X c #03A4FC",
".X c #01ABFB",
"XX c #0AA9F9",
"oX c #15A7F9",
"OX c #01B1FD",
"+X c #03B4FA",
"@X c #14BDFE",
"#X c #36B3EA",
"$X c #3BB5F4",
"%X c #2FB0EF",
"&X c #729FC4",
"*X c #77AACB",
"=X c #76AED0",
"-X c #4AB9ED",
";X c #4CBBF2",
":X c #44B7F5",
">X c #55BCF2",
",X c #4CB6F1",
"<X c #67BEEC",
"1X c #429ACC",
"2X c #58C1F5",
"3X c #4EC2EF",
"4X c #68C7F6",
"5X c #7ACBF5",
"6X c #72CAEE",
"7X c #B99AAE",
"8X c #F89698",
"9X c #E09899",
"0X c #81B2DA",
"qX c #83C6EB",
"wX c #82C9ED",
"eX c #89CAE9",
"rX c #90CCEE",
"tX c #85CAF1",
"yX c #8CCDF2",
"uX c #87CBF9",
"iX c #93CEF3",
"pX c #8DD5FD",
"aX c #8DD9FC",
"sX c #88D4F8",
"dX c #96D9FB",
"fX c #85D1E9",
"gX c #A6DBF7",
"hX c #ACDFEF",
"jX c #ABE3F6",
"kX c #9FE1F7",
"lX c #CBE9F9",
"zX c #D2F3FA",
"xX c #FDFDEE",
"cX c #ECFAFD",
"vX c #E9F5F9",
"bX c #FEFDF6",
"nX c #F2F5FD",
"mX c #F4FEFD",
"MX c #FCFDFC",
"NX c #F9F8F7",
"BX c #EAEFF2",
/* pixels */
"                                                                                                                                              ",
"                                                                                                                                              ",
"                                                                                                                                              ",
"                                                                                                                                              ",
"                                                                                                                                              ",
"                                                                                                                                              ",
"                                                                                                                                              ",
"                                                                                                                                              ",
"                                                                                                                                              ",
"                                                                                                                                              ",
"                                                                                                                                              ",
"                                                                                                                                              ",
"                                                p m d d d s s d a a a a s d f d d d s s s                                                     ",
"                                                - & $ + $ $ $ & & 9 9 & $ $ + $ $ $ $ $ $ $ + #                                               ",
"                                                & q 0 0 q 0 0 0 7 0 0 0 0 0 0 0 0 0 q q 0 q q 9 f                                             ",
"                                                o X . . X . . X . . . . . ; . o . X . . . . X o f                                             ",
"                                        C D Z E V.V.V.V.V.V.N.V.V.V.V.V.V.V.V.V.N.N.N.N.N.V.V.V.! C C C                                       ",
"                              p # 4 X + X + o h.dXpXpXpXpXpXpXpXpXpXpXpXpXpXpXpXaXaXaXaXaXaXaXaX0X- $ & + & + + #                             ",
"                              M $ q 8 0 7 i . ! sXwXwXeXwXeXwXwXtXtXtXtXtXtXtXtXwXwXwXwXwXwXwXyXB.0 j $ 0 j w u h                             ",
"                              g o , . X X X o ! dXyXyXyXyXyXyXyXrXrXrXrXrXrXrXrXyXyXiXyXiXiXyXdX&X: > , , , > , .                             ",
"                              E ! W W W W ! W B.2X-X;X>X;X;X>X>X;X;X;X;X;X;X;X;X;X;X;X;X;X;X;X2X1XI U U I U I U Y                             ",
"                        @ # = =XaXsXdXaXsXaXdX3XT.T.T.T.T.T.T.T.T.T.T.T.T.T.T.T.T.T.T.U.T.U.I.T.{.XX{.{..X.XXX|.OXH 4 @ -                     ",
"                      q k 8 5 *XsX6X6X5XtXqXrX-XU./.)./././././.).).).).).).).).).)._.).).).)._.Y./.T.).T.T.T.T./.x 2 u +                     ",
"                      q & 5 k *XiXyXyXtXyXyXiX-XT.T._.T.T.).T.T././.T.T.T.T.T.T.T.T.T.T.T.T.T.T.(.).Y.U.)._.U./._.F < u #                     ",
"                      q < 1 6 =XpXeX5X4X<X<X4X%XU.).).U././.U.T.).).T.T.).).).).).).{.T.).).).).).T.{.T.{.U.).T.Q.F . 7 +                     ",
"                      q 8 r $ *XsXeXpX%X!.!.W./.T.).).T.).).T.).).).T.T.).).).)./.T.}.}.T.).).T./.{.{.).T.).T.(.}.x , 0 @                     ",
"                      7 5 % 5 *XtXuXyX#XS.).T.(.).).).T.).).).).).).T.).).).).).T.T.).).T.).).T.).).).Y.S.).).)./.F < % &                     ",
"                      7 4 7 5 *XpXyXyX%X)././.R.T.T.U.U.U.U.T.T.).T.).).).).).).{.Y.U.).U.T.).).Q._.U.T./.R.`.T.T.F , 9 @                     ",
"                      a v v 0 =X5XqXsX#X_.XX].].].]._.].[.].]._.).).).).T.).).T. X[.[.[.[.].].].(.[.'.oX_.Q.`.Y./.G 7 j h                     ",
"              7 u y n =XqXqXeXP.(.`.U.jXNXvXmXvXnXcXcXnXnXnXcXvX).T.).).T.).).U.gXvXvXcXcXcXcXcXmXBXvXnXzX[.U.)._.S.I.S.L.J 2 v *             ",
"        =.*.;.9 5 6 b eXsXuXpX[.T.T.I.gXMXmXbXmXbXmXmXMXbXMXmXvX_.T.T.).T.).).I.gXMXmXMXbXmXbXbXbXMXmXMXvX/.!.Y.{.T.}.T..XI : 1 o             ",
"        -.=.&.< j + n qXeXtXyX].).T.!.gXmXmXMXMXMXMXMXMXMXMXmXvX).T.T.).T.)._.I.dXmXMXMXbXmXbXbXmXMXnXMXvX/.T./._./.T.T.|.J ; r @             ",
"              X 8 $ b wXtXtXiXoXU.(.Y.kXbXMXmXbXMXbXmXmXbXmXmXvX_.T.).{.).).).T.gXMXbXMXMXmXbXMXMXxXMXMXvXY.{.T.).).).U.|.P ; 0 +             ",
"              & 5 5 z [.[.[.P.`.~.U.T.jXNXNXMXgX#X:X$X4XmXmXMXvX_.U./.).U.U./.I.gXbXMXmXgX:X$X$X4XbXNXbXvX_.{.U.).).).U..XP : 0 +             ",
"              $ u 2 v A.R.!.T./.).L.T.gXmXmXxX5XI.T.A.#XbXMXMXcX}.T.)._.).)._.T.hXMXNXmXfXI.R.^.%XMXmXbXBX(.L.R.).).).U..XP : 0 +             ",
"              @ j O l U.U.I.{.)./.(.T.gXmXBXbXpXT._.W.3XMXcXmXvX_./.U.).U.U.T.I.kXmXcXMXrXY.oX{.:XxXmXMXvX{.(.T.).).).T..XP : 0 +             ",
"              & w 9 z T.`.U.{.).T._.U.jXbXxXcXsXA._.I.#XmXxXmXcX_.).).).).).).U.jXmXbXMXuXU.I.A.%XbXbXxXcX}.{.].).).).T..XP : 0 +             ",
"              5 7 O l S.|.).U.U.Q.}.T.:X2X2X>XuXdXgXdXdX<X6X4X4X_.T.T.T.T.T.T.T.;X4X3X>XuXdXgXgXsX4X2X4X<XQ.).U.).).).T..XP : 0 +             ",
"              @ q < v A.T.T.T.!._.U./.Q.Q.T.I.6XMXbXMXlXT.U.!.Y././.).)././././.A.).{.E.5XbXMXMXlXI.).T.Y.).S.}.).).).T..XP : 0 +             ",
"              $ 5 < l I.).).I.)./.`.Y.Y.).K.U.5XNXNXbXhX{.).Y.).U.U.T.T.U.U.U.U.'./.W.I.6XNXnXNXlXQ.L.R.).T.!.S.).T.).T..XP : 0 +             ",
"              O 8 < v I.T.).U.).T.).`.E.{.).^.5XMXcXmXlXS.)._.{..X.X.X.X.X.X.XXX{.T.}.A.5XmXbXmXzXQ._./.T.`.).`.).).).U..XP : 7 +             ",
"              $ 8 5 l Y.).).T.T.{.T.T.).T._.{.&X8X9X8X7XK././.D.j.k.f.j.j.j.j.f.H.{.W.`.&X8X8X8X7XQ._.).T.).).).I.).).I.{.P < u 4             ",
"              O 9 5 z R.S.).`.).T.).T.).T._..Xf.[ ^ ] ~ |.W.{.H.` ] [ } ] ] ] [ j..XR..XQ [ ^ ] ~ {./.U.).T.R.).W.T.{.|.|.J ; * =             ",
"              6 7 O v E.`.{.T.).T.).T.).).U.XXg.[ @.{ #.|.I.`.H.O.|  .| | ( X.{ j.{.D.XXg.[ X.] #.+XU.W.T.T._.U.`.U.U.K.'.I < q +             ",
"                3 3 z Y.`. X).Y.T.).).T.}.S.XXg.[ O._ #.{. X.XI.O.|  .| | |  .{ j.OX).+Xk.} ( _ $.U.U._.).{.).).!.!. X{.XXI o < #             ",
"                  m n n.m.c.b.D.}.).).T.R.Y.|.Q [ O.] ~ l.a.a.l.| ` ` ' `  .` ] Q M.l.J.%.o...} #.}.).I.).).U.`./.b.u.y.v.K m   a             ",
"                      5 : 6 9 b.{.I._.`.T.I..Xg.[ ..|  .o._ } _ | | | | | | | `  .` { ` o.^ X.` #.|.I.W.}./._.I.`.F ; O o                     ",
"                      q 1 t 9 F.|.T.T.).T._.XXf.} / o. .' | .. .| | | .. . .| | |  ./  . .|  .` #.XX`.U.U._.).{.`.F , j 4                     ",
"                      7 5 0 5 Z._.Q.Y.`./.U.XXg.[ | ^ o...^ ^ | ` ` `  . . . . ._ _ .... .` _ } #.|.T.Y.T.).R.U.{.F < 0 +                     ",
"                      7 5 0 < c._.{.T.}.).Q..Xk.X.) ( ) `  . .X.| | | | | | | |  .@. .` | +.+./ $.}./.(.{./.T.{.{.F < 0 +                     ",
"                      7 5 0 < c.|.T.).!./.T.}.F.D.W.(.l.o.` ` ` | | | | |  .| |  .^ / ] %.W.F.W.F..XS.Y.~./.R./.).F < 0 +                     ",
"                      7 5 0 2 c.|.U.).Y./.K.Y. X).T..Xa._ (  . .| | |  .| | | | X.....] Q OXT.T. X/./.{.).).R.).).F < 7 +                     ",
"                      7 5 0 2 c.{.T.T.Y.T.Q.K._.}.R. Xa._ | ..( | | | | | | | | ` ..| ] Q .XY./.L./.}.R.T.T./.R.).F < 7 +                     ",
"                      0 5 0 < Z.}.Y.)./._.~./.K./.Y.|.s.{ ` _ } ` ` ` ` ` ` ` ` ..'  .[ Q .X/.T./.~.)./.T.Y././.).x < 0 +                     ",
"                      0 5 0 < Z.{.K.`.`./.{.R.!././._.D.a.x.a.a.G.G.G.G.G.G.G.G.G.G.M.M.H. X`./.R.{.U.T.)./.!.{.).x < 0 +                     ",
"                      0 5 0 < Z.}./.).).Y.Y./.{.)./.T._.|.oX}.|.|.|.`.`.`.`.`.`.).{.`.|.}.U.T./.K.).R.`./.).T.).).F < 0 +                     ",
"                      8 * q 8 Z. XU.T.T.{.{.U.).T./.T._.S./._.).T.E._.U.T.Y.Q.T.L.T.U.).Q.).).!.Q.Q./.).T.Y.}./.Y.F , 0 @                     ",
"                      2 ; , : Z.{.).T.T././.)._.).).T.).U./.).T._.)._./.Q./.~.`./.{./.T.T.Y.).).K._.Q.T.).Y.Q.`.T.F < % 0                     ",
"                    C e.e.w.r.Y.T.K./.T.T.T.)./.).).).).T.).).).{.U.}.).T./.~./.Q.Q.(.!.)./.Q.`.~.!._.Y./.U.R.K.{.x : q w                     ",
"              @ 4 3 z !.XX X{.`.R./.`.).S./.!.T./.T.)./.T.)./.)._./.Y.).U./.R.S.!.).)._.).T.E.).T.I.{.}././._./.).x 5 v i                     ",
"              4 q 1 c A.)./.T./.T.).T.T.).).{././.T.)./.).)./.T.U.).T.T.(.).R.`././.T.Y./.).).T././.T.Q._.).T.).Q.F w v q                     ",
"              ; , > l _.).Y.`.T.Y.`.T._. X X|./.).T.).)._.).).U.|.{..X{._.).).Q./.).!._.`.`.+X{.{.}.S././.T.U.Y.).x > p 3                     ",
"              Y U Y q.U././.T.{.Y.).{.t.w.r.w.z.{.T.).).).).).A.e.w.e.r.A.{.`.!.U./.T.{.Z.w.r.r.t.}.U._.U.U.T.Y.R.Y P Y Y                     ",
"      # + > H OX.X.X_.}.U.|.T.T.`.Q..XJ > , > Y |.U.).).).).).A.3 2 > < Z.{.E./.~.Q./.|.q.> ; > F (.{.Q.).).)._./.|. X|.@XR 4 j @             ",
"      & * 2 J U.U.U.T.).).T.T.I.R./.`.J 6 j ; Y |.U.T.T.U.Y./.F.l 9 l 9 Z.'./.T./.T.Y.`.w.: v < G |.I.T.Y.T.R.U.).U.S.]._.R y n v             ",
"      o & X H .X{.|.|.|.|.|.{.{.|.|..XP ; & . T OX{.{.{..X}.|.S.* X $ 3 Z.|.|.{.`.|.Q.XXw.o 9 : G .X{.{.`.{.{.+X{.}.{.).+XR e b j             ",
"          m L b.v.v.u.y.y.y.y.y.v.u.v.K g d s K v.m.u.y.v.y.v.t.M d f N t.Z.v.b.u.b.n.m.U N s g L z.u.p.i.v.n.y.i.u.u.i.u.K N N n             ",
"              O < < < < < < < < , 8 o :.7.9.7.S # < 9 < $ < 9 8 1.6.6.6.f 3 5 % 2 ; 5 = C 7.6.0.4.O < < 5 1 O 2 O 6 , < + B =.<.-.            ",
"              $ % % * % 5 5 5 7 q * + :.0.3.0.A + 1 0 7 % % & y 3.9.2.8.m 6 7 % j 0 7 # D 0.1.9.>.& w 6 0 < % 0 1 0 0 0 4 B *.&.*.            ",
"              5 9 9 9 9 9 5 5 5 O $ 4 S 5.3.0.S @ 8 9 5 5 7 9 p 1.5.2.8.f 3 q 5 2 < 5 + D 9.1.5.:.O 0 w j q $ 5 5 $ O 8 : B <.<.*.            ",
"                y y y y y y y y y i 5 :.6.1.0.S & 8 0 0 e i j p ,.8.8.8.f 0 7 u q 8 p < C 9.8.9.>.r u p * 2 u q i u y i < B =.-.<.            "
};
