/* XPM */
static char *c5be83bd074d4fbb8d2603575e4c211ccNytR7sgkn3O7MT7[] = {
/* columns rows colors chars-per-pixel */
"71 71 216 2 ",
"   c #FF00FF",
".  c #0E0504",
"X  c #0B0605",
"o  c #120604",
"O  c #140A05",
"+  c #1A0C06",
"@  c #150C0B",
"#  c #1A0D0C",
"$  c #160509",
"%  c #16110B",
"&  c #1B120D",
"*  c #1C1A0D",
"=  c #1A1C06",
"-  c #140A13",
";  c #1B0D13",
":  c #150D1A",
">  c #1C0D1B",
",  c #160212",
"<  c #151013",
"1  c #1D1313",
"2  c #1E1B14",
"3  c #1D131A",
"4  c #18141B",
"5  c #0F0D12",
"6  c #220D0A",
"7  c #280D08",
"8  c #23130D",
"9  c #22190D",
"0  c #281808",
"q  c #230E1B",
"w  c #250C15",
"e  c #231615",
"r  c #2A1614",
"t  c #241916",
"y  c #2A1C15",
"u  c #23141B",
"i  c #29131C",
"p  c #251B1A",
"a  c #2A1C1B",
"s  c #311A12",
"d  c #1D2A0C",
"f  c #27230D",
"g  c #242213",
"h  c #2B2412",
"j  c #25231B",
"k  c #2B221B",
"l  c #2B2919",
"z  c #322418",
"x  c #2B3518",
"c  c #3A361B",
"v  c #363A17",
"b  c #353E0F",
"n  c #181421",
"m  c #1D0E21",
"M  c #241422",
"N  c #241A22",
"B  c #2A1D22",
"V  c #2A1827",
"C  c #210B22",
"Z  c #1F2420",
"A  c #2C2222",
"S  c #2B2727",
"D  c #322625",
"F  c #342A2B",
"G  c #382926",
"H  c #363429",
"J  c #3D3535",
"K  c #3D3838",
"L  c #293720",
"P  c #423D1D",
"I  c #423A34",
"U  c #443C3B",
"Y  c #453936",
"T  c #403A20",
"R  c #17401E",
"E  c #3A401B",
"W  c #22561C",
"Q  c #255227",
"!  c #264C25",
"~  c #1E7A2D",
"^  c #297529",
"/  c #155022",
"(  c #42480E",
")  c #46560E",
"_  c #4B5314",
"`  c #495819",
"'  c #525B16",
"]  c #474F19",
"[  c #536917",
"{  c #61771E",
"}  c #4C5A23",
"|  c #48423E",
" . c #514B3E",
".. c #514E20",
"X. c #697526",
"o. c #453744",
"O. c #4B4543",
"+. c #4A4645",
"@. c #554D4C",
"#. c #534745",
"$. c #58534D",
"%. c #5D5854",
"&. c #4F4850",
"*. c #625C5C",
"=. c #625958",
"-. c #65625E",
";. c #6A625F",
":. c #707053",
">. c #6B6463",
",. c #6D6966",
"<. c #6D6768",
"1. c #736B69",
"2. c #7A757A",
"3. c #797675",
"4. c #787073",
"5. c #837E7E",
"6. c #2B9E36",
"7. c #19B036",
"8. c #24B738",
"9. c #25A938",
"0. c #60801D",
"q. c #2BB842",
"w. c #7E837F",
"e. c #FFEB0A",
"r. c #FCF703",
"t. c #FAF312",
"y. c #FFE814",
"u. c #E8E32D",
"i. c #ECE630",
"p. c #85817E",
"a. c #A79E73",
"s. c #CFD16D",
"d. c #898685",
"f. c #928E8C",
"g. c #94928C",
"h. c #9B9985",
"j. c #8D9392",
"k. c #9D9D9D",
"l. c #979597",
"z. c #958F91",
"x. c #A19D9C",
"c. c #A0969F",
"v. c #9FA19E",
"b. c #A6A39F",
"n. c #A8B19E",
"m. c #9E9EA1",
"M. c #A39DA2",
"N. c #9EA1A1",
"B. c #A4A3A3",
"V. c #AAA7A5",
"C. c #AAA9A6",
"Z. c #ACABAB",
"A. c #A6AAA8",
"S. c #B2AEAD",
"D. c #AEB3AD",
"F. c #B9B7AE",
"G. c #A9ABB3",
"H. c #B2AFB1",
"J. c #B8AFB4",
"K. c #ADB2B4",
"L. c #ABB8B7",
"P. c #B2B2B2",
"I. c #B5B9B4",
"U. c #BBBCB5",
"Y. c #B5B5BA",
"T. c #BBB6BA",
"R. c #B6BABC",
"E. c #BCBBBB",
"W. c #BAB6B4",
"Q. c #C2BDBC",
"!. c #BAC1BC",
"~. c #C9C693",
"^. c #C3C3BD",
"/. c #C9C0B7",
"(. c #BBBCC1",
"). c #B7B4C5",
"_. c #C1BFC2",
"`. c #C4BEC8",
"'. c #BEC1C4",
"]. c #C5C6C5",
"[. c #C8C6C6",
"{. c #C6C9C6",
"}. c #C9CAC6",
"|. c #CBC6CB",
" X c #C7CAC9",
".X c #CBCBCB",
"XX c #C5C7C8",
"oX c #D0CECD",
"OX c #D1C9C6",
"+X c #CDD0CE",
"@X c #D2D1CF",
"#X c #D8DACF",
"$X c #CBCBD2",
"%X c #D2CFD0",
"&X c #CED1D1",
"*X c #D2D3D2",
"=X c #D5DAD6",
"-X c #DCDBDC",
";X c #D7D8D8",
":X c #E1DEDD",
">X c #DEE0DD",
",X c #E3E3DC",
"<X c #DFE3E4",
"1X c #E3E4E2",
"2X c #E6E9E7",
"3X c #EDEDEC",
"4X c #E8E6E9",
"5X c #F0EEED",
"6X c #EDF1EE",
"7X c #EDEFF3",
"8X c #ECF3F4",
"9X c #F2F3F2",
"0X c #FDFDFB",
"qX c #F9F8F8",
"wX c #FAF6F2",
"eX c #DBD2E7",
/* pixels */
"                                                        [ z H c v c T c v P c c P                                                             ",
"                                                        ] - 3 1 % 3 1 1 1 # 1 3 k                                                             ",
"                                                        } ; a e a p a a t p p e h                                                             ",
"                                                        ' & p t & & @ & & e t t h                                                             ",
"                                                        _ # N 3 U 5.3.5.>.e e e k                                                             ",
"                                                        ` ; k o >..X(..Xl.1 e e k                                                             ",
"                                                        ] ; a O *.E.G.E.z.1 a u y                                                             ",
"                                                        ' % B ; %.^.I.I.g.% t e h                                                             ",
"                                                        v 3 p % =.!.L.U.j.u t p f                                                             ",
"                                        1 : > & : : - 1 8 e a # =.^.H.Q.j.; y e i - > > ; ; ; C $                                             ",
"                                        g 9 p t a p B t y a p ; =.(.P.E.j.1 e B 0 k p a a a t y >                                             ",
"                                        y t e N 1 @ & % # 1 1 . %.$XK.(.j.@ & & 1 < 1 + & 1 & g :                                             ",
"                                        a u e e I U I U U U U H :.~.~.~.a.Y I K K K K U I a u u :                                             ",
"                                        j 2 p 1 k._.E.(.T.U.E.).s.r.r.r.i.T.R.R.U.U.U.U.E.J 3 g ;                                             ",
"                                        y p t * l.!.K.K.I.I.Y.).s.r.e.t.u.Y.T.P.Y.H.Y.Y.Y.I + a <                                             ",
"                                        y e a 1 k.T.I.(.U.W.T.).s.r.e.r.i.R.W.(.(.T.I.R._.U # p >                                             ",
"                                        h a u * f.J.S.C.V.C.Z.G.s.t.y.e.u.B.A.A.n.Z.C.V.G.J 8 t :                                             ",
"                                        p u t p Z S A S A A a t *./.F.F.h.B B a A j k k j g & k ;                                             ",
"                                        k r 0 e 0 0 6 u u e 8 + $.'.L.!.j.# u u u * e u 3 p e t 3                                             ",
"                                        j u 9 B 3 p V 2 y e B @ %._.G.^.g.# B * i p p r y u r y 5                                             ",
"                                        * : 3 3 M ; > & u e k @ $.`.P.(.g.& a 0 i * < u u 3 > i @                                             ",
"                                                        ( ; V # =.E.D.R.g.2 1 u h                                                             ",
"                                                        ` # a # *.^.G.(.f.; k n h                                                             ",
"                                                        } # a O *.U.Y.U.g.1 r 0 h                                                             ",
"                                                        _ > k O %._.K.'.g.% p e k                                                             ",
"                                                        ' # A + %.].P.!.f.1 u u h                                                             ",
"                                                        _ @ p & *.E.Y.E.g.& y e h                                                             ",
"                                                        ` N B @ -.{.D.E.z.1 a u l                                                             ",
"                                                        ) X @ . @.^.Z.E.f.. ; @ =                                                             ",
"                                                        :.2.4.1.l.E.].].Z.-.,.;.-.{ {                                                         ",
"                                        = ; ; m q - > o M.0X0XwX3X}.]. X.X;X;X-X|.* - 3 > ; > > ,                                             ",
"                                        j t 0 a t j A # h.0X4X8X-X X X X&X{.{.{.T.A t y i a t g 4                                             ",
"                                        * @ 1 @ 1 # 1 . l.0X3X9X:X{. X.X|.|.XX&XW.t O # 1 # 1 % -                                             ",
"                                         .#.#.#.O.O.O.K V.3X2X4X;X.X X]..XoX.X&XE.O.U U O.| U O.o.X.                                          ",
"                        @ u e 3 u e < F 4XqXqXwX9X5XwXqX*X X X X X X.X X[..X X{..X*X@X@X.X*X+X.XeX*.+ 3 1 1 1 t , b                           ",
"                      { M r a t t e 1 F 2X3X3X3X6X6X9X9X*X X.X X.X X X X X[..X X.X X].]. XXX{.].=X*.- t t A N t u v                           ",
"                      0.- y % & e 1 8 F ,X6X9X7X8X9X3XqX-X]..X.X.X.X.X.X%X X{. X X X.X@X}..X.X[.#X%.@ t & 1 1 y : v                           ",
"                      { A F D H F F D I <X7X3X2X>X-X:X:XoX.X.X X].T.T.Q.T. X+X X XT.E.U.Q.]. X].=X>.a D D D z z a v                           ",
"              ' t h * 4.9X-X4X,X1X2X1X,X&X.XOXoXO.p F 3 g.;XE.-Xd.t D t +..X]..XT.S a A a C.*X]..X[.Q.^.].G.l.m.c.d.f k j h                   ",
"              ) w p o 4.0X7XqX9X9X9X9X5X.X].|.+XI @ t # d.=X].*Xp.O e # U oX X*XT.B e e 3 C..X.X{.&X.X.X&X!.v.x.n.w.> u u z                   ",
"              ` ; k @ 4.qX3X4X3X3X9X3X4X.X X.X.XU e r # d.=X{.*Xp.@ a e | .X[.oXW.A e a e V.*X X[..X X}. XW.x.M.B.2.1 t e h                   ",
"              ..; y O 2.0X3X7X5X3X9X9X3X.X].]..XK @ t @ d.=XE.-Xp.. 1 @ K +X].*XE.p 1 1 1 C..X{..X.X.X}..XT.k.M.A.5.1 a e k                   ",
"              ` > y O 2.0X4X9X4X*X*X*X*X X X X.XD.k.C.b.E. X.X XI.B.x.k.C..X X X].V.V.V.B.]. X.X X X X X.XE.k.N.A.d.1 a e k                   ",
"              _ > k @ 2.0X4X9X1X]. X X]. X X.X X X-X*X*X&X X]..X.X*X;X*X*X.X X X X*X*X*X*X X&X X X X X X.XE.N.N.B.p.1 u 1 k                   ",
"              ` - a . 1.qX2X9X2X X.X.X]..X X X[..X X]. X]..X X.XXX].XX]. X]..X[. X X{.]..X X X.X]. X X.X XY.N.l.C.5.& t e k                   ",
"              ` u t & 2.0X0XqX3X.X.X X.X*X%X.X.X.X.X.X.X.X.X.X.X.X*X.X.X.X.X X*X.X.X X*X X.X%X.X.X*X X X*XE.V.C.P.p.3 p & k                   ",
"              ` > t & U 1.,.,.5.P.P.P.I.S.Z.Z.P.H.P.P.Z.H.H.Z.K.P.Z.Z.P.P.I.P.Z.P.P.P.P.C.P.Z.P.Z.I.P.P.T.d.+.@.$.| & t e l                   ",
"              _ ; r t e @ O . F V.k.l.l.k.x.x.k.x.k.k.v.l.k.B.k.k.k.l.v.k.l.B.k.k.v.l.l.B.k.k.k.k.k.k.l.V.>.. & O e y e e k                   ",
"              ` q a u t t t u U C.k.V.V.B.k.B.k.x.V.B.k.v.l.k.k.k.k.k.k.k.v.v.k.v.B.N.k.B.B.B.N.B.V.k.B.Z.,.1 k i 9 N a r j                   ",
"              ] , & ; 1 u a ; I k.l.l.l.k.k.k.k.k.l.k.l.C.C.Z.V.C.C.C.C.C.C.C.C.V.l.N.B.l.k.k.k.k.k.k.k.V.,.# t r 2 < - # 2                   ",
"                } ` ' E 1 y # K ].Y.E.E.P.P.I.P.Z.P.P.T.p.-.1.-.>.<.<.>.>.>.>.>.4.Z.Z.I.I.P.H.S.I.V.k.k.V.,.@ t r l [ ` }                     ",
"                        % 9 & &.1X1X1X-X*X.X.X&X*X+X].-X%.X & & # # # # # # # @ p [.&X X X.X.X*X%XZ.k.k.C.,.# a 8 E                           ",
"                        n k # O.-X-X-X-X.X.X X.X].{.].@X%.# a p t t t t t t t e F E. X]..X.X]. X*XZ.k.B.C.,.@ a ; L                           ",
"                        - y # O.1X-X-X-X X X.X].*X*X*X:X;.@ e a e t t e e t e e F }.*X.X*X X.X]..XZ.m.m.C.,.# t M E                           ",
"                        - a 1 | 1X-X-X-XoX.X[..XV.b.B.V.+.& t e e t e e e t e e A x.b.B.x._.*X X.XP.m.m.C.,.& t # b                           ",
"                        4 a + +.1X-X-X-X X[. X*XK @ 1 2 t e t t t t t t t p t t e 1 1 1 1 V..X X XP.m.B.C.>.% y i b                           ",
"                        # t # #.1X-X-X-X X X XoXU 1 t e e e t e e e e t t t t t t e t t 1 V.*X X.XP.k.k.V.,.& a w v                           ",
"                        q a &  .1X-X-X-X X X XoXU 1 t e e t t e e t t t t t t t t e t t 1 V.*X X.XP.k.k.V.,.& a > v                           ",
"                        ; t # +.1X-X-X-X X X XoXU & t e e t t e t t t t t t t t t e t t e V.*X X.XP.k.k.V.,.# t u v                           ",
"                        > y # #.1X-X-X-X X X XoXU & t e e e t e t t t t t t t e t e t t e V.*X X.XP.k.k.V.,.# t q v                           ",
"                        1 t @ O.1X-X-X-X X X X.XU & t t t t t e t t t t t t e e t e t t e V.*X X.XP.k.k.V.,.# p 8 v                           ",
"                        ; y 1 @.1X-X-X-X X X X.XU # t t t t t e t t t t t t e e t e t t e V.*X X.XP.k.k.C.,.& p > c                           ",
"                        ; t @ +.1X-X-X-X X.X X.XU & t e t e t e t t t t t t e e t e t t e V.*X X.XP.k.m.C.,.& p u P                           ",
"                      ^ n a # #.1X-X-X-X.X.X XoXU 1 t e t e t e t t t t t t t e t e t t e V.*X]..XZ.k.m.C.,.& p > x                           ",
"                      ~ > t ; #.1X;X:X-X X.X X@XU & y 3 p e r t 2 e e e e t t u t t a e t V.@X]. XP.k.N.A.<.# t i d 8.                        ",
"                7.9.8.^ 7 s @ #.1X=X-X;X]. X]..XO.@ t t t e t e t t t p e e e e t e e a 1 C.@X]..XS.l.k.V.<.# e M L 7.9.6.                    ",
"                7.q.q.~ 8 y - &.6X2X4X2X=X;X&X-XO.& t t t e t t e e t 2 e r t e t t t e 3 S.-X*X*X!.B.A.K.1.% 2 u x 8.8.8.8.                  ",
"                / Q W R e t 1 G ,.>.1.>.>.-.-.>.S e t u p e 1 e e t p 2 e a t t 1 t a t p $.*.*.>.@.#.@.@.J e t = j ! Q Q W                   ",
"              ) , i 7 3 p p e e o o # o @ @ @ # 1 t e e p t 1 t e e 2 2 e e t e t e e e t O O # # # 1 1 # & a r 0 u e 1 q 0                   ",
"              ` 3 p t p t 2 a p a A a k a k p a p a e r t t p a t y t t a t p p p a a t a t k y e k j p k p a t t M a 2 3 l                   ",
"              ( . @ O ; 7 0 0 # o X X O o + . O ; # % 7 @ o % o % 6 7 6 # @ . O O O o $ o & 8 6 r o o o o o @ $ o 6 7 0 6 =                   "
};
