/* XPM */
static char * E3_xpm[] = {
"64 64 14 1",
" 	c #14A02E",
".	c #59C135",
"+	c #14A02E",
"@	c #9CDB43",
"#	c #D6F264",
"$	c #14A02E",
"%	c #14A02E",
"&	c #14A02E",
"*	c #14A02E",
"=	c #14A02E",
"-	c #14A02E",
";	c #14A02E",
">	c #14A02E",
",	c #14A02E",
"....++++@@@@++++....++++....................++++........++++@@@@",
"....++++@@@@++++....++++....................++++........++++@@@@",
"....++++@@@@++++....++++....................++++........++++@@@@",
"....++++@@@@++++....++++....................++++........++++@@@@",
"....++++@@@@@@@@....++++@@@@....@@@@@@@@....++++####........@@@@",
"....++++@@@@@@@@....++++@@@@....@@@@@@@@....++++####........@@@@",
"....++++@@@@@@@@....++++@@@@....@@@@@@@@....++++####........@@@@",
"....++++@@@@@@@@....++++@@@@....@@@@@@@@....++++####........@@@@",
"++++@@@@$$$$%%%%@@@@....@@@@@@@@$$$$$$$$@@@@@@@@....@@@@@@@@$$$$",
"++++@@@@$$$$%%%%@@@@....@@@@@@@@$$$$$$$$@@@@@@@@....@@@@@@@@$$$$",
"++++@@@@$$$$%%%%@@@@....@@@@@@@@$$$$$$$$@@@@@@@@....@@@@@@@@$$$$",
"++++@@@@$$$$%%%%@@@@....@@@@@@@@$$$$$$$$@@@@@@@@....@@@@@@@@$$$$",
"++++@@@@$$$$$$$$&&&&@@@@@@@@****$$$$%%%%========@@@@@@@@****$$$$",
"++++@@@@$$$$$$$$&&&&@@@@@@@@****$$$$%%%%========@@@@@@@@****$$$$",
"++++@@@@$$$$$$$$&&&&@@@@@@@@****$$$$%%%%========@@@@@@@@****$$$$",
"++++@@@@$$$$$$$$&&&&@@@@@@@@****$$$$%%%%========@@@@@@@@****$$$$",
"@@@@....@@@@$$$$----&&&&****%%%%$$$$%%%%----====&&&&****%%%%$$$$",
"@@@@....@@@@$$$$----&&&&****%%%%$$$$%%%%----====&&&&****%%%%$$$$",
"@@@@....@@@@$$$$----&&&&****%%%%$$$$%%%%----====&&&&****%%%%$$$$",
"@@@@....@@@@$$$$----&&&&****%%%%$$$$%%%%----====&&&&****%%%%$$$$",
"@@@@@@@@$$$$%%%%&&&&----****$$$$;;;;>>>>====****----****%%%%>>>>",
"@@@@@@@@$$$$%%%%&&&&----****$$$$;;;;>>>>====****----****%%%%>>>>",
"@@@@@@@@$$$$%%%%&&&&----****$$$$;;;;>>>>====****----****%%%%>>>>",
"@@@@@@@@$$$$%%%%&&&&----****$$$$;;;;>>>>====****----****%%%%>>>>",
"....@@@@$$$$%%%%>>>>****%%%%;;;;,,,,,,,,;;;;>>>>====%%%%;;;;,,,,",
"....@@@@$$$$%%%%>>>>****%%%%;;;;,,,,,,,,;;;;>>>>====%%%%;;;;,,,,",
"....@@@@$$$$%%%%>>>>****%%%%;;;;,,,,,,,,;;;;>>>>====%%%%;;;;,,,,",
"....@@@@$$$$%%%%>>>>****%%%%;;;;,,,,,,,,;;;;>>>>====%%%%;;;;,,,,",
"....@@@@@@@@>>>>,,,,;;;;;;;;,,,,,,,,,,,,,,,,,,,,;;;;>>>>,,,,,,,,",
"....@@@@@@@@>>>>,,,,;;;;;;;;,,,,,,,,,,,,,,,,,,,,;;;;>>>>,,,,,,,,",
"....@@@@@@@@>>>>,,,,;;;;;;;;,,,,,,,,,,,,,,,,,,,,;;;;>>>>,,,,,,,,",
"....@@@@@@@@>>>>,,,,;;;;;;;;,,,,,,,,,,,,,,,,,,,,;;;;>>>>,,,,,,,,",
"....@@@@@@@@%%%%>>>>,,,,,,,,        ,,,,,,,,,,,,,,,,,,,,        ",
"....@@@@@@@@%%%%>>>>,,,,,,,,        ,,,,,,,,,,,,,,,,,,,,        ",
"....@@@@@@@@%%%%>>>>,,,,,,,,        ,,,,,,,,,,,,,,,,,,,,        ",
"....@@@@@@@@%%%%>>>>,,,,,,,,        ,,,,,,,,,,,,,,,,,,,,        ",
"............@@@@****;;;;,,,,                ,,,,,,,,            ",
"............@@@@****;;;;,,,,                ,,,,,,,,            ",
"............@@@@****;;;;,,,,                ,,,,,,,,            ",
"............@@@@****;;;;,,,,                ,,,,,,,,            ",
"........@@@@****>>>>,,,,,,,,,,,,                                ",
"........@@@@****>>>>,,,,,,,,,,,,                                ",
"........@@@@****>>>>,,,,,,,,,,,,                                ",
"........@@@@****>>>>,,,,,,,,,,,,                                ",
"....@@@@$$$$;;;;,,,,,,,,,,,,                                    ",
"....@@@@$$$$;;;;,,,,,,,,,,,,                                    ",
"....@@@@$$$$;;;;,,,,,,,,,,,,                                    ",
"....@@@@$$$$;;;;,,,,,,,,,,,,                                    ",
"....@@@@%%%%;;;;,,,,,,,,            @@@@@@@@                    ",
"....@@@@%%%%;;;;,,,,,,,,            @@@@@@@@                    ",
"....@@@@%%%%;;;;,,,,,,,,            @@@@@@@@                    ",
"....@@@@%%%%;;;;,,,,,,,,            @@@@@@@@                    ",
"........@@@@,,,,,,,,@@@@@@@@    @@@@........@@@@    @@@@@@@@    ",
"........@@@@,,,,,,,,@@@@@@@@    @@@@........@@@@    @@@@@@@@    ",
"........@@@@,,,,,,,,@@@@@@@@    @@@@........@@@@    @@@@@@@@    ",
"........@@@@,,,,,,,,@@@@@@@@    @@@@........@@@@    @@@@@@@@    ",
"....@@@@....@@@@@@@@....@@@@@@@@....@@@@....@@@@@@@@........@@@@",
"....@@@@....@@@@@@@@....@@@@@@@@....@@@@....@@@@@@@@........@@@@",
"....@@@@....@@@@@@@@....@@@@@@@@....@@@@....@@@@@@@@........@@@@",
"....@@@@....@@@@@@@@....@@@@@@@@....@@@@....@@@@@@@@........@@@@",
"........@@@@............@@@@++++....@@@@++++............++++@@@@",
"........@@@@............@@@@++++....@@@@++++............++++@@@@",
"........@@@@............@@@@++++....@@@@++++............++++@@@@",
"........@@@@............@@@@++++....@@@@++++............++++@@@@"};